<svg width="459" height="342" viewBox="0 0 459 342" fill="none" xmlns="http://www.w3.org/2000/svg">
<path d="M459 300.553H0V300.783H459V300.553Z" fill="#E6E6E6"/>
<path d="M429.991 308.65H412.76V308.879H429.991V308.65Z" fill="#E6E6E6"/>
<path d="M350.456 314.947H342.478V315.177H350.456V314.947Z" fill="#E6E6E6"/>
<path d="M274.776 311.78H257.003V312.01H274.776V311.78Z" fill="#E6E6E6"/>
<path d="M113.942 311.661H74.2938V311.891H113.942V311.661Z" fill="#E6E6E6"/>
<path d="M66.1235 311.661H60.3126V311.891H66.1235V311.661Z" fill="#E6E6E6"/>
<path d="M259.776 306.226H173.777V306.456H259.776V306.226Z" fill="#E6E6E6"/>
<path d="M217.566 259.61H40.3094C38.9208 259.608 37.5898 259.055 36.6088 258.072C35.6278 257.089 35.0768 255.757 35.0768 254.369V5.19588C35.0889 3.81523 35.6452 2.4951 36.6249 1.52224C37.6047 0.549385 38.9287 0.00236512 40.3094 0H217.566C218.956 0 220.289 0.552258 221.272 1.53528C222.256 2.51831 222.808 3.85157 222.808 5.24178V254.369C222.808 255.759 222.256 257.092 221.272 258.075C220.289 259.058 218.956 259.61 217.566 259.61ZM40.3094 0.183601C38.9816 0.186032 37.7091 0.715182 36.7711 1.6549C35.8331 2.59462 35.3063 3.86813 35.3063 5.19588V254.369C35.3063 255.696 35.8331 256.97 36.7711 257.91C37.7091 258.849 38.9816 259.378 40.3094 259.381H217.566C218.895 259.378 220.168 258.85 221.108 257.91C222.047 256.971 222.576 255.697 222.578 254.369V5.19588C222.576 3.86729 222.047 2.5938 221.108 1.65434C220.168 0.714884 218.895 0.186027 217.566 0.183601H40.3094Z" fill="#E6E6E6"/>
<path d="M416.139 259.61H238.873C237.483 259.608 236.151 259.055 235.169 258.072C234.186 257.09 233.633 255.758 233.631 254.369V5.19588C233.645 3.81439 234.204 2.49428 235.185 1.52167C236.166 0.549064 237.491 0.00233933 238.873 0H416.139C417.518 0.00477773 418.839 0.552865 419.817 1.52547C420.795 2.49807 421.35 3.81682 421.362 5.19588V254.369C421.362 255.756 420.812 257.086 419.833 258.069C418.854 259.051 417.526 259.606 416.139 259.61ZM238.873 0.183601C237.544 0.186027 236.271 0.714884 235.331 1.65434C234.392 2.5938 233.863 3.86729 233.86 5.19588V254.369C233.863 255.697 234.392 256.971 235.331 257.91C236.271 258.85 237.544 259.378 238.873 259.381H416.139C417.467 259.378 418.741 258.85 419.68 257.91C420.62 256.971 421.148 255.697 421.151 254.369V5.19588C421.148 3.86729 420.62 2.5938 419.68 1.65434C418.741 0.714884 417.467 0.186027 416.139 0.183601H238.873Z" fill="#E6E6E6"/>
<path d="M239.561 17.1483H53.8958V149.46H239.561V17.1483Z" fill="#FAFAFA"/>
<path d="M242.995 17.1483H55.5023V149.46H242.995V17.1483Z" fill="#F5F5F5"/>
<path d="M238.184 144.053V22.5461L60.3126 22.5461V144.053H238.184Z" fill="#FAFAFA"/>
<path d="M92.6996 144.053L120.919 22.5461H157.914L129.695 144.053H92.6996Z" fill="white"/>
<path d="M135.68 144.053L163.909 22.5461H180.616L152.388 144.053H135.68Z" fill="white"/>
<path d="M238.184 144.053V22.5461H237.569V144.053H238.184Z" fill="#FAFAFA"/>
<path d="M50.288 16.9279V69.3641H64.159C64.159 69.3641 89.046 53.1063 94.7468 19.6636C94.8849 18.8626 94.8459 18.0411 94.6324 17.2569C94.419 16.4727 94.0363 15.7447 93.5112 15.1243C92.9862 14.5039 92.3316 14.006 91.5934 13.6658C90.8553 13.3255 90.0515 13.1512 89.2388 13.155H54.061C53.0604 13.155 52.1007 13.5525 51.3931 14.26C50.6856 14.9676 50.288 15.9273 50.288 16.9279Z" fill="#E0E0E0"/>
<path d="M50.288 165.644V73.5961H64.159C64.159 73.5961 92.3141 127.804 95.573 165.644H50.288Z" fill="#E0E0E0"/>
<path d="M63.7551 69.3641H50.7929C50.0274 69.3641 49.4067 69.9847 49.4067 70.7503V72.2099C49.4067 72.9754 50.0274 73.5961 50.7929 73.5961H63.7551C64.5206 73.5961 65.1413 72.9754 65.1413 72.2099V70.7503C65.1413 69.9847 64.5206 69.3641 63.7551 69.3641Z" fill="#F5F5F5"/>
<path d="M246.942 16.9279V69.3641H233.044C233.044 69.3641 208.12 53.1063 202.456 19.6635C202.319 18.8628 202.359 18.0419 202.574 17.2584C202.788 16.4748 203.171 15.7476 203.695 15.1275C204.22 14.5075 204.874 14.0097 205.611 13.6689C206.349 13.3282 207.151 13.1527 207.964 13.1549H243.178C244.177 13.1598 245.132 13.5591 245.838 14.2659C246.543 14.9727 246.94 15.9296 246.942 16.9279Z" fill="#E0E0E0"/>
<path d="M246.942 165.644V73.5961H233.043C233.043 73.5961 204.898 127.804 201.63 165.644H246.942Z" fill="#E0E0E0"/>
<path d="M233.447 73.5869H246.41C247.175 73.5869 247.796 72.9662 247.796 72.2007V70.741C247.796 69.9755 247.175 69.3549 246.41 69.3549H233.447C232.682 69.3549 232.061 69.9755 232.061 70.741V72.2007C232.061 72.9662 232.682 73.5869 233.447 73.5869Z" fill="#F5F5F5"/>
<path d="M242.747 182.37H212.242V300.553H242.747V182.37Z" fill="#FAFAFA"/>
<path d="M234.604 300.553H242.747V286.903H226.067L234.604 300.553Z" fill="#F4F8FF"/>
<path d="M96.8031 182.37H66.2979V300.553H96.8031V182.37Z" fill="#E0E0E0"/>
<path d="M242.747 182.37H89.6978V295.853H242.747V182.37Z" fill="#FAFAFA"/>
<path d="M135.68 162.302C135.68 173.318 146.292 182.37 159.273 182.37H170.987C183.958 182.37 194.57 173.337 194.57 162.302H135.68Z" fill="#EBEBEB"/>
<path d="M128.887 137.085H150.919C150.919 137.085 147.091 147.183 147.091 153.132C147.091 159.08 163.854 182.37 139.903 182.37C115.953 182.37 132.715 159.071 132.715 153.132C132.715 147.192 128.887 137.085 128.887 137.085Z" fill="#E0E0E0"/>
<path d="M236.431 189.282H96.0136V217.896H236.431V189.282Z" fill="#EBEBEB"/>
<path d="M97.8404 300.553H89.6978V286.903H106.387L97.8404 300.553Z" fill="#FAFAFA"/>
<path d="M161.908 203.585C161.908 204.438 162.161 205.272 162.635 205.982C163.109 206.691 163.783 207.244 164.571 207.571C165.36 207.898 166.227 207.983 167.064 207.817C167.901 207.65 168.67 207.239 169.273 206.636C169.877 206.032 170.287 205.264 170.454 204.427C170.62 203.59 170.535 202.722 170.208 201.934C169.882 201.145 169.329 200.471 168.619 199.997C167.91 199.523 167.076 199.27 166.222 199.27C165.078 199.27 163.981 199.725 163.171 200.534C162.362 201.343 161.908 202.441 161.908 203.585Z" fill="#FAFAFA"/>
<path d="M236.431 224.809H96.0136V253.423H236.431V224.809Z" fill="#EBEBEB"/>
<path d="M161.908 239.111C161.908 239.965 162.161 240.799 162.635 241.509C163.109 242.218 163.783 242.771 164.571 243.098C165.36 243.424 166.227 243.51 167.064 243.343C167.901 243.177 168.67 242.766 169.273 242.162C169.877 241.559 170.287 240.79 170.454 239.953C170.62 239.116 170.535 238.249 170.208 237.46C169.882 236.672 169.329 235.998 168.619 235.524C167.91 235.05 167.076 234.797 166.222 234.797C165.078 234.797 163.981 235.251 163.171 236.061C162.362 236.87 161.908 237.967 161.908 239.111Z" fill="#FAFAFA"/>
<path d="M236.431 260.326H96.0136V288.94H236.431V260.326Z" fill="#EBEBEB"/>
<path d="M166.222 278.953C168.605 278.953 170.537 277.021 170.537 274.638C170.537 272.255 168.605 270.323 166.222 270.323C163.839 270.323 161.908 272.255 161.908 274.638C161.908 277.021 163.839 278.953 166.222 278.953Z" fill="#FAFAFA"/>
<path d="M339.55 15.5509H271.407V64.058H339.55V15.5509Z" fill="#E0E0E0"/>
<path d="M345.113 15.5509H275.281V64.058H345.113V15.5509Z" fill="#F5F5F5"/>
<path d="M340.661 59.6058V20.0032L279.733 20.0032V59.6058L340.661 59.6058Z" fill="white"/>
<path d="M329.938 48.0665V31.5333L290.455 31.5333V48.0665H329.938Z" fill="#F5F5F5"/>
<path d="M394.832 39.8045H353.357V83.2993H394.832V39.8045Z" fill="#E0E0E0"/>
<path d="M400.413 39.8045H357.24V83.2993H400.413V39.8045Z" fill="#F5F5F5"/>
<path d="M395.961 78.847V44.2568H361.692V78.847H395.961Z" fill="white"/>
<path d="M372.414 61.5519C372.414 60.0245 373.02 58.5595 374.1 57.4787C375.179 56.3978 376.643 55.7893 378.17 55.7869H379.474C381.001 55.7893 382.465 56.3978 383.544 57.4787C384.623 58.5595 385.23 60.0245 385.23 61.5519C385.23 63.0785 384.623 64.5425 383.544 65.6219C382.464 66.7013 381 67.3078 379.474 67.3078H378.216C377.456 67.3138 376.703 67.1694 375.999 66.8829C375.296 66.5963 374.656 66.1733 374.116 65.6382C373.577 65.1031 373.149 64.4666 372.857 63.7652C372.565 63.0639 372.414 62.3117 372.414 61.5519Z" fill="#F5F5F5"/>
<path d="M459 98.0883H349.483H329.571V123.398H309.66V148.707H289.748V174.016H269.837V199.325H249.925V224.625H230.014V249.935H210.103V275.244H190.191V300.553H210.103H459V98.0883Z" fill="#FAFAFA"/>
<path d="M301.636 275.244H188.144V282.836H301.636V275.244Z" fill="#EBEBEB"/>
<path d="M321.548 249.935H208.055V257.527H321.548V249.935Z" fill="#EBEBEB"/>
<path d="M341.459 224.625H227.967V232.217H341.459V224.625Z" fill="#EBEBEB"/>
<path d="M361.371 199.316H247.878V206.908H361.371V199.316Z" fill="#EBEBEB"/>
<path d="M381.282 174.016H267.79V181.608H381.282V174.016Z" fill="#EBEBEB"/>
<path d="M401.194 148.707H287.701V156.299H401.194V148.707Z" fill="#EBEBEB"/>
<path d="M421.105 123.398H307.613V130.989H421.105V123.398Z" fill="#EBEBEB"/>
<path d="M441.016 98.0883H327.524V105.68H441.016V98.0883Z" fill="#EBEBEB"/>
<path d="M439.089 98.0883V123.398H419.177V148.707H399.266V174.016H379.354V199.325H359.443V224.625H339.531V249.935H319.62V275.244H299.709V300.553H319.62H459V123.398V98.0883H439.089Z" fill="white"/>
<path d="M229.5 342.01C327.802 342.01 407.491 337.358 407.491 331.618C407.491 325.879 327.802 321.227 229.5 321.227C131.198 321.227 51.509 325.879 51.509 331.618C51.509 337.358 131.198 342.01 229.5 342.01Z" fill="#F5F5F5"/>
<path d="M335.208 98.226C336.493 102.531 343.121 110.591 343.644 116.457C344.167 122.323 332.867 131.705 332.867 131.705C332.867 131.705 324.421 103.468 329.709 100.172C334.996 96.8765 335.208 98.226 335.208 98.226Z" fill="#263238"/>
<path d="M312.001 128.731C309.999 130.402 308.035 131.806 305.988 133.248C303.941 134.689 301.829 136.002 299.681 137.232C297.525 138.507 295.304 139.669 293.026 140.711C291.869 141.234 290.721 141.748 289.528 142.198C288.94 142.437 288.344 142.666 287.738 142.868L285.902 143.511C284.332 143.95 282.69 144.068 281.073 143.86C279.722 143.702 278.384 143.444 277.071 143.089C274.623 142.411 272.227 141.558 269.901 140.537C265.387 138.566 261.032 136.248 256.875 133.606L258.591 130.411C260.758 131.329 262.979 132.247 265.183 133.046C267.386 133.844 269.607 134.689 271.829 135.377C273.995 136.087 276.202 136.664 278.439 137.103C279.465 137.304 280.505 137.43 281.551 137.48C282.33 137.54 283.113 137.459 283.864 137.241C285.958 136.44 288.006 135.52 289.996 134.487C291.015 133.955 292.025 133.413 293.016 132.825C294.008 132.238 295.018 131.669 296 131.063C297.974 129.842 299.901 128.548 301.811 127.216C303.72 125.885 305.621 124.462 307.319 123.113L312.001 128.731Z" fill="#E58A7B"/>
<path d="M316.848 118.954C314.571 117.174 305.152 123.003 302.297 125.436L304.381 138.04C304.381 138.04 317.922 132.366 318.73 128.492C319.583 124.444 318.546 120.313 316.848 118.954Z" fill="#407BFF"/>
<path opacity="0.2" d="M316.848 118.954C314.571 117.174 305.152 123.003 302.297 125.436L304.381 138.04C304.381 138.04 317.922 132.366 318.73 128.492C319.583 124.444 318.546 120.313 316.848 118.954Z" fill="black"/>
<path d="M348.528 157.097L319.941 162.67C305.171 122.672 308.384 121.36 308.384 121.36C310.461 120.218 312.607 119.206 314.81 118.33L315.195 118.183C317.031 117.513 317.398 117.412 319.84 116.696C324.045 115.696 327.965 114.86 332.821 114.172L333.739 114.043C334.657 113.933 335.492 113.841 336.337 113.759C336.906 113.694 337.475 113.658 338.017 113.621L339.853 113.52C342.992 113.364 345.241 113.41 345.241 113.41C344.369 138.389 345.783 145.558 348.528 157.097Z" fill="#407BFF"/>
<path opacity="0.2" d="M348.528 157.097L319.941 162.67C305.171 122.672 308.384 121.36 308.384 121.36C310.461 120.218 312.607 119.206 314.81 118.33L315.195 118.183C317.031 117.513 317.398 117.412 319.84 116.696C324.045 115.696 327.965 114.86 332.821 114.172L333.739 114.043C334.657 113.933 335.492 113.841 336.337 113.759C336.906 113.694 337.475 113.658 338.017 113.621L339.853 113.52C342.992 113.364 345.241 113.41 345.241 113.41C344.369 138.389 345.783 145.558 348.528 157.097Z" fill="black"/>
<path d="M326.138 101.099C324.302 104.138 330.957 105.543 334.896 102.43C338.044 99.9335 337.301 94.1685 334.602 92.8282C331.903 91.4879 326.138 101.099 326.138 101.099Z" fill="#407BFF"/>
<path opacity="0.4" d="M326.138 101.099C324.302 104.138 330.957 105.543 334.896 102.43C338.044 99.9335 337.301 94.1685 334.602 92.8282C331.903 91.4879 326.138 101.099 326.138 101.099Z" fill="black"/>
<path d="M353.962 322.649L346.811 323.182L344.195 306.722L351.346 306.19L353.962 322.649Z" fill="#E58A7B"/>
<path d="M404.544 299.644L398.476 303.463L387.671 290.648L393.739 286.82L404.544 299.644Z" fill="#E58A7B"/>
<path d="M344.195 306.722L345.645 315.865L352.696 314.681L351.355 306.199L344.195 306.722Z" fill="#CF6F64"/>
<path d="M393.749 286.829L387.671 290.648L392.151 295.954L398.357 292.291L393.749 286.829Z" fill="#CF6F64"/>
<path d="M320.382 162.67C320.382 162.67 320.281 219.42 324.917 240.791C329.746 263.025 343.947 313.607 343.947 313.607L354.247 312.276C354.247 312.276 346.196 261.18 342.763 239.084C339.027 215.005 341.322 158.594 341.322 158.594L320.382 162.67Z" fill="#407BFF"/>
<path opacity="0.7" d="M320.382 162.67C320.382 162.67 320.281 219.42 324.917 240.791C329.746 263.025 343.947 313.607 343.947 313.607L354.247 312.276C354.247 312.276 346.196 261.18 342.763 239.084C339.027 215.005 341.322 158.594 341.322 158.594L320.382 162.67Z" fill="black"/>
<path opacity="0.5" d="M340.679 183.747L335.63 178.716C335.823 200.519 337.044 211.287 341.239 223.019C340.578 210.617 340.523 195.947 340.679 183.747Z" fill="black"/>
<path d="M327.487 161.201C327.487 161.201 342.882 208.101 350.52 235.118C358.58 263.622 389.48 295.146 389.48 295.146L398.348 290.024C398.348 290.024 377.234 260.097 369.467 233.502C353.678 179.515 360.168 168.077 348.519 157.097L327.487 161.201Z" fill="#407BFF"/>
<path opacity="0.7" d="M327.487 161.201C327.487 161.201 342.882 208.101 350.52 235.118C358.58 263.622 389.48 295.146 389.48 295.146L398.348 290.024C398.348 290.024 377.234 260.097 369.467 233.502C353.678 179.515 360.168 168.077 348.519 157.097L327.487 161.201Z" fill="black"/>
<path d="M315.388 84.5386C319.482 85.9065 323.2 96.0687 323.356 100.071C323.512 104.074 311.496 109.591 311.496 109.591C311.496 109.591 306.199 96.7389 307.677 88.4769C308.319 84.8875 315.388 84.5386 315.388 84.5386Z" fill="#263238"/>
<path d="M259.197 130.751L254.341 125.463L252.753 132.091C252.753 132.091 256.205 135.139 258.995 134.092L259.197 130.751Z" fill="#E58A7B"/>
<path d="M249.421 123.948L246.024 126.647L252.753 132.091L254.341 125.463L249.421 123.948Z" fill="#E58A7B"/>
<path d="M396.576 302.095L402.249 296.376C402.347 296.279 402.477 296.219 402.615 296.209C402.753 296.199 402.891 296.239 403.002 296.321L408.17 300.158C408.298 300.259 408.403 300.385 408.479 300.529C408.554 300.673 408.598 300.832 408.608 300.994C408.617 301.156 408.592 301.319 408.534 301.471C408.476 301.623 408.387 301.761 408.271 301.875C406.252 303.83 405.187 304.675 402.69 307.19C401.157 308.742 399.073 311.156 396.952 313.295C394.832 315.434 392.601 313.442 393.28 312.377C396.374 307.539 395.823 305.731 396.034 303.271C396.066 302.826 396.259 302.408 396.576 302.095Z" fill="#263238"/>
<path d="M346.334 322.154H354.394C354.536 322.154 354.673 322.203 354.782 322.294C354.891 322.384 354.965 322.51 354.991 322.649L356.257 329.02C356.286 329.177 356.279 329.338 356.238 329.492C356.197 329.646 356.123 329.789 356.02 329.911C355.918 330.033 355.789 330.13 355.645 330.197C355.5 330.264 355.343 330.298 355.183 330.296C352.365 330.251 351.006 330.085 347.463 330.085C345.287 330.085 340.789 330.306 337.778 330.306C334.767 330.306 334.446 327.331 335.685 327.065C341.193 325.853 343.35 324.192 345.159 322.594C345.486 322.314 345.902 322.158 346.334 322.154Z" fill="#263238"/>
<g style="mix-blend-mode:multiply" opacity="0.27">
<path d="M346.169 127.887L341.762 130.512L346.848 149.634C345.737 143.841 346.233 137.48 346.169 127.887Z" fill="#407BFF"/>
</g>
<path d="M321.125 98.0332C324.256 100.649 328.8 104.459 334.152 100.007C338.742 96.1697 341.955 86.0992 333.72 85.732C329.415 85.5392 321.125 98.0332 321.125 98.0332Z" fill="#263238"/>
<path d="M328.69 99.8234C328.69 104.156 329.36 111.968 332.821 114.19C332.821 114.19 332.509 118.652 324.742 120.157C316.214 121.819 319.84 116.715 319.84 116.715C324.283 114.695 323.512 111.262 322.043 108.177L328.69 99.8234Z" fill="#E58A7B"/>
<path d="M325.982 103.229L322.053 108.177C322.397 108.892 322.679 109.635 322.897 110.399C324.623 109.793 326.689 107.369 326.514 105.469C326.476 104.696 326.296 103.937 325.982 103.229Z" fill="#CF6F64"/>
<path d="M329.103 89.8722C330.021 96.9316 330.581 99.8968 327.753 104.165C323.503 110.591 314.635 110.178 311.615 103.541C308.861 97.565 307.833 87.0172 314.112 82.9321C315.493 82.0181 317.084 81.4726 318.735 81.3476C320.386 81.2226 322.042 81.5221 323.545 82.2177C325.047 82.9134 326.347 83.9819 327.32 85.3217C328.293 86.6616 328.907 88.2281 329.103 89.8722Z" fill="#E58A7B"/>
<path d="M316.838 77.5067C312.065 80.8942 321.64 81.8948 321.649 86.8061C321.649 88.8349 324.981 95.2701 329.718 94.9029L334.308 86.751C339.137 78.948 327.726 69.768 316.838 77.5067Z" fill="#263238"/>
<path d="M316.838 77.5068C308.439 77.0661 304.776 83.7492 305.74 89.7529C311.6 88.2919 317.661 87.8111 323.678 88.33C335.189 89.505 316.838 77.5068 316.838 77.5068Z" fill="#263238"/>
<path d="M331.398 95.9586C331.514 97.3289 331.082 98.6893 330.195 99.7407C329.011 101.127 327.441 100.31 326.891 98.6667C326.422 97.1795 326.477 94.6734 328.075 93.8839C328.428 93.7207 328.816 93.6479 329.204 93.6722C329.592 93.6964 329.967 93.8169 330.297 94.0228C330.627 94.2287 330.9 94.5135 331.093 94.8514C331.285 95.1894 331.39 95.5699 331.398 95.9586Z" fill="#E58A7B"/>
<path d="M318.904 93.8839C319.014 94.4531 318.803 94.9671 318.436 95.0406C318.069 95.114 317.674 94.7101 317.564 94.1226C317.453 93.535 317.665 93.0301 318.032 92.9567C318.399 92.8833 318.794 93.3147 318.904 93.8839Z" fill="#263238"/>
<path d="M312.487 95.1323C312.597 95.7015 312.386 96.2248 312.019 96.2982C311.652 96.3716 311.257 95.9677 311.147 95.3802C311.037 94.7927 311.248 94.2878 311.615 94.2235C311.982 94.1593 312.377 94.554 312.487 95.1323Z" fill="#263238"/>
<path d="M311.79 94.2327L310.348 94.1134C310.348 94.1134 311.257 95.0406 311.79 94.2327Z" fill="#263238"/>
<path d="M314.378 95.7841C314.12 97.1748 313.676 98.5242 313.056 99.7958C313.385 99.9492 313.744 100.029 314.107 100.029C314.471 100.029 314.829 99.9492 315.159 99.7958L314.378 95.7841Z" fill="#DF5753"/>
<path d="M317.555 101.632C317.515 101.632 317.477 101.619 317.446 101.594C317.416 101.568 317.396 101.533 317.389 101.494C317.385 101.472 317.386 101.45 317.391 101.429C317.395 101.407 317.405 101.387 317.417 101.369C317.43 101.351 317.447 101.335 317.465 101.324C317.484 101.312 317.505 101.305 317.527 101.301C318.237 101.178 318.907 100.889 319.484 100.459C320.062 100.028 320.53 99.4676 320.85 98.8227C320.859 98.8022 320.871 98.7836 320.887 98.7679C320.902 98.7522 320.921 98.7397 320.941 98.7312C320.962 98.7227 320.984 98.7182 321.006 98.7182C321.028 98.7182 321.05 98.7225 321.07 98.7309C321.091 98.7394 321.11 98.7517 321.125 98.7674C321.141 98.783 321.153 98.8016 321.162 98.8221C321.171 98.8425 321.175 98.8645 321.175 98.8866C321.175 98.9088 321.171 98.9307 321.162 98.9512C320.826 99.652 320.326 100.262 319.704 100.728C319.083 101.195 318.358 101.505 317.591 101.632H317.555Z" fill="#263238"/>
<path d="M320.382 91.442C320.298 91.443 320.217 91.4136 320.152 91.3594C319.844 91.0658 319.47 90.8496 319.061 90.7283C318.653 90.607 318.221 90.5842 317.802 90.6617C317.71 90.6848 317.612 90.6702 317.53 90.6212C317.448 90.5721 317.389 90.4926 317.366 90.4001C317.343 90.3075 317.358 90.2096 317.407 90.1279C317.456 90.0461 317.535 89.9871 317.628 89.964C318.157 89.8598 318.704 89.8829 319.223 90.0313C319.741 90.1798 320.217 90.4493 320.611 90.8177C320.674 90.8813 320.709 90.9671 320.709 91.0564C320.709 91.1458 320.674 91.2315 320.611 91.2951C320.586 91.3345 320.552 91.368 320.513 91.3933C320.473 91.4186 320.428 91.4352 320.382 91.442Z" fill="#263238"/>
<path d="M308.934 92.718C308.892 92.7275 308.848 92.7275 308.806 92.718C308.764 92.701 308.726 92.6757 308.694 92.6437C308.662 92.6117 308.637 92.5737 308.619 92.5318C308.602 92.4899 308.594 92.445 308.594 92.3997C308.595 92.3544 308.604 92.3097 308.622 92.2682C308.818 91.7662 309.13 91.3183 309.535 90.9621C309.939 90.6059 310.422 90.3518 310.945 90.2211C310.989 90.2118 311.035 90.2117 311.079 90.2207C311.123 90.2297 311.165 90.2477 311.202 90.2735C311.239 90.2993 311.27 90.3324 311.294 90.3707C311.317 90.4091 311.333 90.4519 311.34 90.4965C311.349 90.5399 311.349 90.5848 311.341 90.6285C311.333 90.6721 311.315 90.7136 311.29 90.7505C311.266 90.7873 311.234 90.8188 311.196 90.843C311.159 90.8671 311.117 90.8836 311.073 90.8912C310.661 91.0037 310.28 91.2108 309.961 91.496C309.643 91.7813 309.395 92.1368 309.237 92.5344C309.208 92.5893 309.164 92.6353 309.111 92.6676C309.058 92.6998 308.997 92.7173 308.934 92.718Z" fill="#263238"/>
<path d="M394.446 305.428C394.289 305.424 394.135 305.382 393.997 305.305C393.86 305.228 393.743 305.119 393.657 304.987C393.591 304.91 393.548 304.816 393.53 304.716C393.512 304.616 393.521 304.513 393.556 304.418C393.877 303.555 396.411 303.004 396.695 302.94C396.728 302.934 396.762 302.938 396.793 302.951C396.824 302.964 396.851 302.986 396.87 303.013C396.889 303.04 396.9 303.072 396.9 303.105C396.9 303.138 396.889 303.17 396.87 303.197C396.374 304.014 395.401 305.382 394.492 305.428H394.446ZM396.365 303.362C395.364 303.619 394.042 304.078 393.877 304.537C393.861 304.579 393.857 304.626 393.867 304.67C393.877 304.714 393.9 304.754 393.932 304.785C393.989 304.88 394.07 304.958 394.167 305.011C394.263 305.064 394.373 305.091 394.483 305.088C394.969 305.061 395.658 304.427 396.365 303.362Z" fill="#407BFF"/>
<path d="M395.952 303.362C395.034 303.362 393.886 303.133 393.547 302.637C393.471 302.524 393.436 302.389 393.448 302.254C393.46 302.119 393.517 301.992 393.611 301.893C393.691 301.791 393.793 301.707 393.908 301.647C394.024 301.587 394.151 301.552 394.281 301.545H394.354C395.383 301.545 396.796 302.931 396.851 302.986C396.873 303.007 396.889 303.033 396.897 303.062C396.906 303.091 396.905 303.122 396.897 303.151C396.889 303.18 396.874 303.205 396.853 303.226C396.832 303.247 396.806 303.262 396.778 303.27C396.507 303.336 396.23 303.366 395.952 303.362ZM394.354 301.884H394.299C394.217 301.887 394.136 301.908 394.063 301.946C393.99 301.985 393.926 302.039 393.877 302.105C393.748 302.279 393.785 302.38 393.831 302.444C394.107 302.867 395.511 303.105 396.374 303.004C395.823 302.443 395.122 302.054 394.354 301.884Z" fill="#407BFF"/>
<path d="M343.699 323.411C343.082 323.466 342.464 323.311 341.946 322.971C341.823 322.875 341.727 322.75 341.666 322.607C341.605 322.464 341.581 322.308 341.597 322.154C341.596 322.062 341.62 321.971 341.665 321.89C341.71 321.81 341.775 321.742 341.854 321.695C342.699 321.199 345.654 322.668 345.985 322.833C346.016 322.85 346.041 322.875 346.058 322.906C346.074 322.937 346.081 322.973 346.077 323.008C346.072 323.042 346.058 323.074 346.035 323.101C346.012 323.127 345.982 323.146 345.948 323.154C345.208 323.309 344.455 323.395 343.699 323.411ZM342.34 321.924C342.233 321.917 342.125 321.94 342.028 321.989C341.997 322.005 341.972 322.03 341.955 322.062C341.939 322.093 341.933 322.128 341.937 322.163C341.927 322.266 341.944 322.371 341.983 322.467C342.023 322.563 342.086 322.647 342.166 322.714C342.625 323.109 343.809 323.173 345.37 322.916C344.422 322.419 343.398 322.084 342.34 321.924Z" fill="#407BFF"/>
<path d="M345.912 323.136H345.847C344.929 322.741 343.158 321.181 343.286 320.382C343.286 320.198 343.451 319.96 343.91 319.914H344.048C345.645 319.914 346.058 322.833 346.077 322.962C346.081 322.992 346.077 323.024 346.066 323.052C346.055 323.081 346.036 323.107 346.013 323.127C345.98 323.139 345.945 323.142 345.912 323.136ZM344.076 320.235H343.975C343.681 320.235 343.662 320.373 343.662 320.41C343.589 320.896 344.801 322.117 345.719 322.659C345.535 321.943 345.067 320.253 344.039 320.253L344.076 320.235Z" fill="#407BFF"/>
<path d="M318.206 92.9842L316.765 92.8557C316.765 92.8557 317.674 93.7921 318.206 92.9842Z" fill="#263238"/>
<path d="M324.513 126.262C309.155 129.686 313.901 120.396 314.819 118.349L315.204 118.202C317.04 117.532 317.408 117.431 319.849 116.715C324.111 115.564 328.448 114.721 332.83 114.19L333.748 114.061C334.666 113.942 335.501 113.85 336.346 113.777C336.915 113.713 337.484 113.676 338.026 113.639L339.862 113.529C340.174 114.961 340.936 122.617 324.513 126.262Z" fill="#E58A7B"/>
<path d="M348.62 155.335L350.41 157.648C350.547 157.823 350.355 158.07 350.024 158.135L320.042 163.973C319.785 164.028 319.547 163.973 319.501 163.78L318.739 161.274C318.739 161.1 318.886 160.907 319.161 160.852L348.115 155.215C348.202 155.19 348.294 155.187 348.383 155.208C348.472 155.229 348.553 155.273 348.62 155.335Z" fill="#26395A"/>
<path d="M345.361 159.328L346.141 159.181C346.297 159.181 346.398 159.053 346.371 158.952L345.361 155.702C345.361 155.601 345.177 155.555 345.021 155.583L344.25 155.73C344.094 155.73 343.993 155.867 344.02 155.959L345.03 159.218C345.058 159.31 345.214 159.365 345.361 159.328Z" fill="#407BFF"/>
<path d="M327.799 170.16L321.823 167.939L322.741 173.621C322.741 173.621 327.074 175.182 329.287 173.181L327.799 170.16Z" fill="#E58A7B"/>
<path d="M316.132 169.444L314.709 173.172L322.741 173.621L321.823 167.939L316.132 169.444Z" fill="#E58A7B"/>
<path d="M322.273 163.826L323.053 163.679C323.2 163.679 323.31 163.551 323.274 163.45L322.264 160.2C322.264 160.099 322.089 160.053 321.933 160.081L321.153 160.228C320.997 160.228 320.896 160.365 320.933 160.457L321.943 163.716C321.97 163.808 322.117 163.863 322.273 163.826Z" fill="#407BFF"/>
<path d="M333.821 161.568L334.593 161.421C334.749 161.421 334.85 161.293 334.822 161.192L333.812 157.942C333.812 157.841 333.629 157.795 333.473 157.823L332.701 157.969C332.545 157.969 332.444 158.107 332.472 158.199L333.482 161.458C333.518 161.511 333.572 161.551 333.633 161.57C333.694 161.59 333.761 161.59 333.821 161.568Z" fill="#407BFF"/>
<path d="M330.553 110.546C331.205 110.298 332.022 112.593 331.82 112.887C331.352 113.557 322.778 115.898 322.392 114.585C322.368 113.873 322.477 113.163 322.714 112.492C322.962 112.051 324.862 112.859 330.553 110.546Z" fill="#407BFF"/>
<path d="M329.103 110.601C329.433 109.839 330.379 108.618 331.205 109.315C332.031 110.013 332.38 111.519 331.839 111.767C331.297 112.014 328.534 111.877 329.103 110.601Z" fill="#407BFF"/>
<path d="M330.856 110.995C331.425 110.39 332.692 109.554 333.271 110.49C333.849 111.427 333.638 112.96 333.05 113.006C332.463 113.052 329.892 111.996 330.856 110.995Z" fill="#407BFF"/>
<path d="M331.168 110.858C331.122 110.37 331.218 109.879 331.444 109.444C331.671 109.009 332.018 108.649 332.444 108.407C333.491 107.727 334.51 107.287 334.914 106.571C335.088 107.242 335.122 107.942 335.015 108.627C334.804 109.609 331.545 110.362 331.765 111.216L331.168 110.858Z" fill="#407BFF"/>
<path d="M331.031 110.812C330.727 110.426 330.541 109.961 330.495 109.473C330.449 108.984 330.546 108.493 330.774 108.058C331.269 106.919 331.894 106.001 331.857 105.194C332.367 105.663 332.776 106.232 333.059 106.864C333.408 107.782 331.086 110.197 331.738 110.803L331.031 110.812Z" fill="#407BFF"/>
<path d="M394.878 290.143C394.859 290.142 394.841 290.137 394.825 290.127C394.809 290.118 394.795 290.104 394.786 290.088C394.575 289.794 373.589 259.849 365.896 233.539C360.876 216.663 357.017 199.462 354.348 182.058C352.76 172.254 351.796 166.332 348.638 161.476C348.617 161.454 348.605 161.424 348.605 161.394C348.605 161.363 348.617 161.333 348.638 161.311C348.66 161.292 348.687 161.282 348.716 161.282C348.745 161.282 348.772 161.292 348.794 161.311C351.989 166.213 352.953 172.153 354.541 181.984C357.223 199.363 361.087 216.539 366.108 233.392C373.791 259.665 394.758 289.574 394.969 289.877C394.987 289.899 394.996 289.927 394.996 289.955C394.996 289.983 394.987 290.011 394.969 290.033C394.968 290.059 394.958 290.083 394.942 290.103C394.925 290.123 394.903 290.137 394.878 290.143Z" fill="#407BFF"/>
<path opacity="0.4" d="M394.878 290.143C394.859 290.142 394.841 290.137 394.825 290.127C394.809 290.118 394.795 290.104 394.786 290.088C394.575 289.794 373.589 259.849 365.896 233.539C360.876 216.663 357.017 199.462 354.348 182.058C352.76 172.254 351.796 166.332 348.638 161.476C348.617 161.454 348.605 161.424 348.605 161.394C348.605 161.363 348.617 161.333 348.638 161.311C348.66 161.292 348.687 161.282 348.716 161.282C348.745 161.282 348.772 161.292 348.794 161.311C351.989 166.213 352.953 172.153 354.541 181.984C357.223 199.363 361.087 216.539 366.108 233.392C373.791 259.665 394.758 289.574 394.969 289.877C394.987 289.899 394.996 289.927 394.996 289.955C394.996 289.983 394.987 290.011 394.969 290.033C394.968 290.059 394.958 290.083 394.942 290.103C394.925 290.123 394.903 290.137 394.878 290.143Z" fill="black"/>
<path d="M356.092 312.239L342.065 314.057L341.147 310.146L355.752 307.053L356.092 312.239Z" fill="#407BFF"/>
<path d="M399.091 289.712L388.745 295.688L385.257 292.704L396.576 285.048L399.091 289.712Z" fill="#407BFF"/>
<path d="M350.538 123.131C351.034 125.683 351.319 128.089 351.594 130.576C351.869 133.064 351.97 135.524 352.044 138.012C352.117 140.519 352.062 143.029 351.879 145.531C351.778 146.788 351.667 148.046 351.493 149.313C351.42 149.937 351.337 150.57 351.218 151.204L350.878 153.15C350.502 154.736 349.812 156.231 348.849 157.547C348.059 158.654 347.188 159.701 346.242 160.678C344.471 162.497 342.568 164.185 340.55 165.727C336.647 168.732 332.516 171.43 328.194 173.796L326.23 170.748C328.066 169.288 329.902 167.783 331.738 166.25C333.574 164.717 335.318 163.165 336.998 161.55C338.658 159.995 340.224 158.342 341.689 156.602C342.361 155.796 342.975 154.943 343.525 154.05C343.958 153.398 344.269 152.674 344.443 151.911C344.741 149.682 344.916 147.439 344.966 145.191C344.966 144.043 344.966 142.896 344.966 141.748C344.966 140.601 344.92 139.435 344.865 138.278C344.755 135.965 344.544 133.688 344.296 131.338C344.048 128.988 343.727 126.666 343.378 124.49L350.538 123.131Z" fill="#E58A7B"/>
<path d="M349.427 115.328C353.347 118.505 352.411 127.942 352.411 127.942L339.192 132.293C339.192 132.293 339.798 121.415 340.459 117.504C341.23 112.85 345.563 112.198 349.427 115.328Z" fill="#407BFF"/>
<path opacity="0.2" d="M349.427 115.328C353.347 118.505 352.411 127.942 352.411 127.942L339.192 132.293C339.192 132.293 339.798 121.415 340.459 117.504C341.23 112.85 345.563 112.198 349.427 115.328Z" fill="black"/>
<path d="M174.796 154.711C174.283 152.485 173.031 150.499 171.244 149.076C169.456 147.654 167.24 146.88 164.955 146.88H91.5154C88.8372 146.88 86.2687 147.944 84.375 149.838C82.4813 151.731 81.4174 154.3 81.4174 156.978V320.217C81.4174 322.895 82.4813 325.463 84.375 327.357C86.2687 329.251 88.8372 330.315 91.5154 330.315H324.687C327.366 330.315 329.934 329.251 331.828 327.357C333.721 325.463 334.785 322.895 334.785 320.217V183.095C334.785 180.417 333.721 177.848 331.828 175.955C329.934 174.061 327.366 172.997 324.687 172.997H197.774C192.44 172.998 187.263 171.19 183.09 167.869C178.916 164.547 175.993 159.909 174.796 154.711Z" fill="#407BFF"/>
<path opacity="0.6" d="M174.796 154.711C174.283 152.485 173.031 150.499 171.244 149.076C169.456 147.654 167.24 146.88 164.955 146.88H91.5154C88.8372 146.88 86.2687 147.944 84.375 149.838C82.4813 151.731 81.4174 154.3 81.4174 156.978V320.217C81.4174 322.895 82.4813 325.463 84.375 327.357C86.2687 329.251 88.8372 330.315 91.5154 330.315H324.687C327.366 330.315 329.934 329.251 331.828 327.357C333.721 325.463 334.785 322.895 334.785 320.217V183.095C334.785 180.417 333.721 177.848 331.828 175.955C329.934 174.061 327.366 172.997 324.687 172.997H197.774C192.44 172.998 187.263 171.19 183.09 167.869C178.916 164.547 175.993 159.909 174.796 154.711Z" fill="black"/>
<path opacity="0.22" d="M148.872 103.872L155.417 125.068C156.253 127.766 158.125 130.022 160.622 131.34C163.12 132.659 166.039 132.932 168.737 132.1L189.925 125.555L148.872 103.872Z" fill="#407BFF"/>
<path d="M148.872 103.872L73.137 127.272C71.8 127.682 70.5572 128.353 69.4795 129.244C68.4019 130.136 67.5106 131.231 66.8566 132.467C66.2026 133.703 65.7988 135.057 65.6683 136.449C65.5378 137.842 65.6831 139.246 66.0959 140.583L109.334 280.559C109.746 281.896 110.418 283.138 111.311 284.214C112.204 285.291 113.3 286.181 114.537 286.835C115.774 287.488 117.128 287.89 118.52 288.02C119.913 288.15 121.318 288.004 122.654 287.591L219.586 257.646C220.922 257.234 222.164 256.563 223.24 255.671C224.317 254.779 225.207 253.684 225.86 252.448C226.513 251.212 226.916 249.859 227.046 248.467C227.176 247.075 227.03 245.671 226.617 244.335L189.897 125.555L148.872 103.872Z" fill="#407BFF"/>
<path opacity="0.8" d="M148.872 103.872L73.137 127.272C71.8 127.682 70.5572 128.353 69.4795 129.244C68.4019 130.136 67.5106 131.231 66.8566 132.467C66.2026 133.703 65.7988 135.057 65.6683 136.449C65.5378 137.842 65.6831 139.246 66.0959 140.583L109.334 280.559C109.746 281.896 110.418 283.138 111.311 284.214C112.204 285.291 113.3 286.181 114.537 286.835C115.774 287.488 117.128 287.89 118.52 288.02C119.913 288.15 121.318 288.004 122.654 287.591L219.586 257.646C220.922 257.234 222.164 256.563 223.24 255.671C224.317 254.779 225.207 253.684 225.86 252.448C226.513 251.212 226.916 249.859 227.046 248.467C227.176 247.075 227.03 245.671 226.617 244.335L189.897 125.555L148.872 103.872Z" fill="white"/>
<g opacity="0.28">
<path d="M189.622 251.532L126.61 270.994C125.432 271.356 124.158 271.236 123.068 270.662C121.977 270.087 121.158 269.104 120.79 267.927C120.432 266.749 120.554 265.477 121.13 264.388C121.706 263.299 122.69 262.483 123.866 262.117L186.877 242.646C188.057 242.284 189.332 242.405 190.422 242.981C191.513 243.558 192.331 244.543 192.697 245.721C193.056 246.899 192.934 248.172 192.358 249.261C191.782 250.349 190.798 251.166 189.622 251.532Z" fill="#407BFF"/>
</g>
<g opacity="0.28">
<path d="M121.809 137.314L88.486 147.605C87.3076 147.965 86.0349 147.844 84.945 147.27C83.855 146.696 83.0359 145.714 82.6659 144.539C82.3069 143.36 82.4286 142.086 83.0047 140.996C83.5807 139.905 84.5644 139.087 85.7412 138.719L119.065 128.428C120.243 128.064 121.518 128.182 122.609 128.757C123.7 129.332 124.519 130.316 124.885 131.494C125.244 132.674 125.122 133.948 124.546 135.038C123.97 136.128 122.986 136.946 121.809 137.314Z" fill="#407BFF"/>
</g>
<g opacity="0.28">
<path d="M149.001 148.229L93.9206 165.24C92.7446 165.593 91.4768 165.468 90.3924 164.893C89.3079 164.317 88.4942 163.337 88.128 162.165C87.7663 160.988 87.8859 159.715 88.4606 158.626C89.0353 157.537 90.0182 156.72 91.1941 156.354L146.274 139.343C147.452 138.981 148.726 139.101 149.817 139.675C150.908 140.25 151.726 141.233 152.094 142.409C152.45 143.591 152.324 144.866 151.745 145.956C151.166 147.046 150.179 147.863 149.001 148.229Z" fill="#407BFF"/>
</g>
<g opacity="0.28">
<path d="M179.754 158.043L99.3734 182.829C98.1963 183.191 96.9237 183.071 95.8346 182.496C94.7454 181.922 93.9284 180.939 93.5625 179.763C93.2031 178.584 93.3236 177.312 93.8978 176.222C94.472 175.132 95.4535 174.313 96.6286 173.943L177.009 149.157C178.186 148.798 179.457 148.918 180.546 149.493C181.634 150.067 182.452 151.048 182.82 152.223C183.182 153.401 183.062 154.675 182.488 155.766C181.913 156.856 180.93 157.675 179.754 158.043Z" fill="#407BFF"/>
</g>
<g opacity="0.28">
<path d="M185.197 175.669L138.471 190.109C137.293 190.467 136.02 190.345 134.931 189.769C133.843 189.193 133.026 188.209 132.66 187.033C132.301 185.856 132.422 184.585 132.996 183.496C133.57 182.408 134.552 181.59 135.726 181.222L182.452 166.782C183.632 166.426 184.905 166.549 185.994 167.124C187.084 167.7 187.902 168.682 188.273 169.858C188.631 171.036 188.509 172.308 187.933 173.397C187.357 174.486 186.373 175.302 185.197 175.669Z" fill="#407BFF"/>
</g>
<g opacity="0.28">
<path d="M117.045 196.727L104.826 200.5C103.648 200.862 102.374 200.743 101.284 200.168C100.193 199.594 99.3741 198.611 99.0062 197.434C98.6447 196.255 98.7653 194.98 99.3417 193.889C99.9181 192.798 100.903 191.98 102.082 191.614L114.3 187.841C115.479 187.482 116.751 187.602 117.841 188.176C118.931 188.751 119.75 189.732 120.12 190.907C120.477 192.087 120.354 193.359 119.778 194.449C119.202 195.539 118.22 196.357 117.045 196.727Z" fill="#407BFF"/>
</g>
<g opacity="0.28">
<path d="M190.65 193.303L110.27 218.135C109.092 218.494 107.819 218.372 106.731 217.796C105.642 217.22 104.825 216.236 104.459 215.06C104.098 213.883 104.217 212.61 104.792 211.521C105.367 210.432 106.349 209.615 107.525 209.249L187.905 184.417C189.083 184.058 190.354 184.179 191.442 184.753C192.531 185.327 193.348 186.309 193.716 187.483C194.078 188.662 193.959 189.935 193.384 191.026C192.81 192.117 191.827 192.935 190.65 193.303Z" fill="#407BFF"/>
</g>
<g opacity="0.28">
<path d="M165.075 220.513L115.714 235.761C114.537 236.12 113.265 235.999 112.177 235.425C111.088 234.85 110.271 233.869 109.903 232.695C109.544 231.516 109.664 230.244 110.238 229.154C110.812 228.064 111.794 227.245 112.969 226.875L162.33 211.627C163.51 211.268 164.783 211.389 165.873 211.965C166.964 212.541 167.782 213.525 168.15 214.702C168.511 215.88 168.39 217.154 167.814 218.243C167.237 219.333 166.252 220.149 165.075 220.513Z" fill="#407BFF"/>
</g>
<g opacity="0.28">
<path d="M196.094 210.938L182.921 215.005C181.741 215.364 180.467 215.242 179.377 214.666C178.287 214.09 177.469 213.106 177.101 211.929C176.742 210.751 176.864 209.479 177.44 208.39C178.016 207.301 179 206.485 180.176 206.119L193.349 202.052C194.526 201.69 195.799 201.81 196.888 202.384C197.977 202.959 198.794 203.942 199.16 205.118C199.522 206.296 199.403 207.57 198.828 208.661C198.254 209.751 197.27 210.57 196.094 210.938Z" fill="#407BFF"/>
</g>
<g opacity="0.28">
<path d="M201.538 228.582L121.176 253.368C119.996 253.73 118.722 253.609 117.631 253.033C116.54 252.456 115.722 251.471 115.356 250.293C114.995 249.114 115.115 247.841 115.692 246.751C116.268 245.662 117.254 244.846 118.431 244.482L198.802 219.65C199.982 219.293 201.254 219.416 202.344 219.992C203.433 220.568 204.252 221.55 204.622 222.725C204.807 223.312 204.873 223.93 204.818 224.543C204.762 225.156 204.586 225.751 204.299 226.296C204.013 226.84 203.621 227.322 203.147 227.715C202.673 228.107 202.126 228.402 201.538 228.582Z" fill="#407BFF"/>
</g>
<path d="M203.263 51.2336L227.297 104.79C227.921 106.188 227.966 107.776 227.422 109.207C226.879 110.638 225.791 111.796 224.396 112.427L122.443 158.19C121.045 158.816 119.456 158.863 118.024 158.319C116.592 157.775 115.434 156.685 114.805 155.289L90.7626 101.733C90.1333 100.334 90.0854 98.7426 90.6294 97.3085C91.1734 95.8745 92.2648 94.7152 93.6635 94.0858L195.617 48.3235C197.017 47.6998 198.607 47.6558 200.04 48.2011C201.473 48.7464 202.632 49.8366 203.263 51.2336Z" fill="#407BFF"/>
<path opacity="0.3" d="M203.263 51.2336L227.297 104.79C227.921 106.188 227.966 107.776 227.422 109.207C226.879 110.638 225.791 111.796 224.396 112.427L122.443 158.19C121.045 158.816 119.456 158.863 118.024 158.319C116.592 157.775 115.434 156.685 114.805 155.289L90.7626 101.733C90.1333 100.334 90.0854 98.7426 90.6294 97.3085C91.1734 95.8745 92.2648 94.7152 93.6635 94.0858L195.617 48.3235C197.017 47.6998 198.607 47.6558 200.04 48.2011C201.473 48.7464 202.632 49.8366 203.263 51.2336Z" fill="black"/>
<path d="M187.195 48.5872L183.937 50.0488L184.313 50.8864L187.571 49.4248L187.195 48.5872Z" fill="#407BFF"/>
<path d="M179.374 52.0913L169.214 56.6489L169.59 57.4865L179.75 52.9289L179.374 52.0913Z" fill="#407BFF"/>
<path d="M90.6721 107.13L89.8347 107.506L92.6172 113.703L93.4546 113.327L90.6721 107.13Z" fill="#407BFF"/>
<path opacity="0.6" d="M199.849 48.1307L173.557 99.6305C171.117 104.404 167.122 108.202 162.231 110.397C157.341 112.592 151.847 113.052 146.66 111.702L90.7076 97.1152C91.2815 95.7727 92.3355 94.6926 93.6635 94.0858L195.617 48.3235C196.952 47.7263 198.464 47.6574 199.849 48.1307Z" fill="#407BFF"/>
<path d="M235.99 114.043L156.877 118.927C155.479 119.01 154.112 119.368 152.853 119.98C151.593 120.592 150.467 121.447 149.539 122.495C148.61 123.543 147.897 124.763 147.441 126.087C146.985 127.411 146.794 128.812 146.88 130.209L155.904 276.428C155.988 277.827 156.347 279.195 156.961 280.454C157.575 281.714 158.432 282.84 159.481 283.767C160.531 284.695 161.754 285.407 163.079 285.861C164.404 286.316 165.806 286.504 167.204 286.416L268.46 280.164C269.856 280.08 271.222 279.721 272.479 279.108C273.736 278.495 274.86 277.64 275.786 276.592C276.712 275.544 277.422 274.324 277.876 273.001C278.33 271.678 278.518 270.278 278.429 268.882L270.81 144.796L235.99 114.043Z" fill="#407BFF"/>
<path opacity="0.8" d="M235.99 114.043L156.877 118.927C155.479 119.01 154.112 119.368 152.853 119.98C151.593 120.592 150.467 121.447 149.539 122.495C148.61 123.543 147.897 124.763 147.441 126.087C146.985 127.411 146.794 128.812 146.88 130.209L155.904 276.428C155.988 277.827 156.347 279.195 156.961 280.454C157.575 281.714 158.432 282.84 159.481 283.767C160.531 284.695 161.754 285.407 163.079 285.861C164.404 286.316 165.806 286.504 167.204 286.416L268.46 280.164C269.856 280.08 271.222 279.721 272.479 279.108C273.736 278.495 274.86 277.64 275.786 276.592C276.712 275.544 277.422 274.324 277.876 273.001C278.33 271.678 278.518 270.278 278.429 268.882L270.81 144.796L235.99 114.043Z" fill="white"/>
<g opacity="0.22">
<path d="M240.773 267.138L174.943 271.205C173.713 271.275 172.506 270.856 171.584 270.039C170.662 269.222 170.101 268.074 170.023 266.844C169.952 265.615 170.37 264.408 171.185 263.485C171.999 262.561 173.146 261.997 174.374 261.915L240.204 257.857C241.434 257.784 242.642 258.201 243.566 259.016C244.49 259.831 245.053 260.979 245.133 262.208C245.206 263.44 244.788 264.65 243.971 265.574C243.154 266.498 242.004 267.06 240.773 267.138Z" fill="#407BFF"/>
</g>
<g opacity="0.22">
<path d="M201.813 140.16L166.993 142.29C165.764 142.361 164.557 141.943 163.634 141.128C162.711 140.313 162.146 139.167 162.064 137.939C161.993 136.708 162.412 135.499 163.229 134.576C164.046 133.653 165.194 133.089 166.424 133.009L201.244 130.861C202.473 130.788 203.681 131.205 204.603 132.021C205.525 132.836 206.086 133.984 206.164 135.212C206.242 136.445 205.828 137.659 205.012 138.586C204.196 139.514 203.046 140.08 201.813 140.16Z" fill="#407BFF"/>
</g>
<g opacity="0.22">
<path d="M225.663 157.18L168.132 160.723C166.901 160.799 165.691 160.383 164.767 159.567C163.843 158.751 163.28 157.602 163.202 156.372C163.129 155.141 163.547 153.931 164.364 153.007C165.182 152.083 166.331 151.52 167.563 151.442L225.084 147.899C226.315 147.824 227.525 148.239 228.449 149.055C229.373 149.871 229.936 151.02 230.014 152.25C230.087 153.48 229.67 154.689 228.855 155.613C228.04 156.536 226.892 157.1 225.663 157.18Z" fill="#407BFF"/>
</g>
<g opacity="0.22">
<path d="M253.23 173.97L169.27 179.148C168.036 179.223 166.823 178.807 165.895 177.989C164.968 177.172 164.402 176.021 164.322 174.787C164.249 173.558 164.666 172.351 165.482 171.428C166.297 170.506 167.445 169.945 168.673 169.867L252.643 164.68C253.873 164.61 255.08 165.029 256.002 165.846C256.924 166.663 257.485 167.811 257.563 169.041C257.636 170.267 257.222 171.474 256.411 172.397C255.599 173.32 254.456 173.885 253.23 173.97Z" fill="#407BFF"/>
</g>
<g opacity="0.22">
<path d="M254.369 192.385L205.558 195.396C204.329 195.469 203.12 195.053 202.196 194.237C201.273 193.422 200.709 192.274 200.629 191.045C200.553 189.815 200.969 188.604 201.785 187.68C202.601 186.756 203.75 186.193 204.98 186.115L253.79 183.104C255.021 183.029 256.231 183.445 257.155 184.26C258.079 185.076 258.642 186.225 258.72 187.456C258.793 188.685 258.376 189.894 257.561 190.818C256.746 191.741 255.598 192.305 254.369 192.385Z" fill="#407BFF"/>
</g>
<g opacity="0.22">
<path d="M183.168 196.773L170.399 197.563C169.17 197.636 167.962 197.219 167.04 196.403C166.118 195.588 165.557 194.44 165.479 193.211C165.406 191.982 165.822 190.773 166.638 189.849C167.453 188.926 168.601 188.362 169.83 188.282L182.599 187.492C183.83 187.422 185.039 187.841 185.962 188.657C186.885 189.474 187.449 190.623 187.529 191.853C187.599 193.083 187.18 194.29 186.363 195.212C185.546 196.134 184.398 196.695 183.168 196.773Z" fill="#407BFF"/>
</g>
<g opacity="0.22">
<path d="M255.507 210.8L171.537 215.978C170.308 216.051 169.099 215.634 168.175 214.819C167.252 214.004 166.688 212.856 166.608 211.627C166.537 210.396 166.956 209.187 167.773 208.264C168.59 207.34 169.738 206.777 170.968 206.697L254.929 201.519C256.16 201.447 257.37 201.864 258.294 202.682C259.218 203.499 259.78 204.649 259.858 205.88C259.931 207.109 259.514 208.316 258.699 209.239C257.883 210.161 256.735 210.722 255.507 210.8Z" fill="#407BFF"/>
</g>
<g opacity="0.22">
<path d="M224.24 231.217L172.676 234.402C171.445 234.473 170.236 234.054 169.313 233.237C168.39 232.42 167.826 231.272 167.746 230.042C167.676 228.812 168.095 227.604 168.912 226.682C169.729 225.76 170.877 225.199 172.107 225.121L223.671 221.936C224.9 221.865 226.108 222.284 227.03 223.101C227.952 223.918 228.513 225.067 228.591 226.296C228.667 227.526 228.25 228.735 227.434 229.658C226.618 230.58 225.469 231.141 224.24 231.217Z" fill="#407BFF"/>
</g>
<g opacity="0.22">
<path d="M256.636 229.225L242.866 230.069C241.637 230.142 240.429 229.725 239.507 228.91C238.585 228.094 238.024 226.946 237.946 225.718C237.87 224.487 238.286 223.277 239.102 222.353C239.917 221.429 241.067 220.866 242.297 220.788L256.067 219.944C257.297 219.868 258.507 220.284 259.432 221.1C260.356 221.916 260.919 223.065 260.997 224.295C261.067 225.526 260.648 226.734 259.831 227.658C259.015 228.581 257.866 229.144 256.636 229.225Z" fill="#407BFF"/>
</g>
<g opacity="0.22">
<path d="M257.774 247.64L173.814 252.817C172.584 252.89 171.375 252.473 170.452 251.658C169.528 250.843 168.965 249.695 168.884 248.466C168.811 247.236 169.228 246.027 170.043 245.104C170.859 244.18 172.006 243.617 173.236 243.536L257.205 238.359C258.434 238.286 259.642 238.703 260.564 239.518C261.486 240.334 262.048 241.481 262.126 242.71C262.201 243.94 261.785 245.151 260.969 246.075C260.154 246.999 259.005 247.562 257.774 247.64Z" fill="#407BFF"/>
</g>
<path opacity="0.22" d="M235.99 114.043L237.358 136.185C237.443 137.581 237.803 138.947 238.416 140.204C239.029 141.461 239.884 142.585 240.932 143.512C241.98 144.438 243.2 145.15 244.522 145.605C245.845 146.06 247.244 146.25 248.64 146.164L270.81 144.796L235.99 114.043Z" fill="#407BFF"/>
<path opacity="0.5" d="M210.084 169.279C210.07 168.218 209.844 167.171 209.418 166.198C208.993 165.226 208.377 164.349 207.607 163.619C206.836 162.889 205.928 162.321 204.934 161.948C203.941 161.576 202.883 161.406 201.822 161.449H128.29C122.718 161.449 117.274 165.974 116.228 171.547L87.2099 320.217C86.1267 325.789 89.762 330.315 95.3342 330.315H328.506C334.078 330.315 339.476 325.798 340.569 320.217L364.501 197.664C365.584 192.082 361.949 187.566 356.377 187.566H229.5C218.484 187.566 210.461 179.983 210.084 169.279Z" fill="#407BFF"/>
</svg>
