<svg width="672" height="500" viewBox="0 0 672 500" fill="none" xmlns="http://www.w3.org/2000/svg">
<path d="M671.033 439.392H0V439.728H671.033V439.392Z" fill="#E6E6E6"/>
<path d="M167.517 459.698H123.067V460.033H167.517V459.698Z" fill="#E6E6E6"/>
<path d="M109.003 459.698H83.2483V460.033H109.003V459.698Z" fill="#E6E6E6"/>
<path d="M282.572 464.636H256.818V464.972H282.572V464.636Z" fill="#E6E6E6"/>
<path d="M416.859 472.125H358.895V472.461H416.859V472.125Z" fill="#E6E6E6"/>
<path d="M346.951 472.125H338.456V472.461H346.951V472.125Z" fill="#E6E6E6"/>
<path d="M608.425 464.636H482.701V464.972H608.425V464.636Z" fill="#E6E6E6"/>
<path d="M318.07 379.536H58.9301C56.9 379.533 54.9543 378.724 53.5201 377.287C52.0859 375.85 51.2803 373.903 51.2803 371.873V7.59609C51.298 5.57766 52.1113 3.64771 53.5437 2.22544C54.976 0.80317 56.9116 0.00345768 58.9301 0H318.07C320.102 0 322.051 0.80737 323.488 2.2445C324.925 3.68163 325.733 5.63079 325.733 7.66319V371.873C325.733 373.905 324.925 375.855 323.488 377.292C322.051 378.729 320.102 379.536 318.07 379.536ZM58.9301 0.268414C56.989 0.271969 55.1286 1.04556 53.7573 2.41938C52.386 3.7932 51.6159 5.65499 51.6159 7.59609V371.873C51.6159 373.814 52.386 375.676 53.7573 377.05C55.1286 378.423 56.989 379.197 58.9301 379.201H318.07C320.012 379.197 321.874 378.424 323.247 377.051C324.621 375.677 325.394 373.815 325.397 371.873V7.59609C325.394 5.65376 324.621 3.792 323.247 2.41856C321.874 1.04512 320.012 0.271962 318.07 0.268414H58.9301Z" fill="#E6E6E6"/>
<path d="M608.372 379.536H349.219C347.188 379.533 345.24 378.724 343.804 377.288C342.368 375.851 341.559 373.904 341.556 371.873V7.59609C341.577 5.57644 342.393 3.6465 343.828 2.2246C345.262 0.802701 347.199 0.00341997 349.219 0H608.372C610.388 0.00698478 612.32 0.808258 613.75 2.23015C615.179 3.65204 615.99 5.57998 616.008 7.59609V371.873C616.008 373.901 615.204 375.846 613.773 377.282C612.342 378.719 610.4 379.529 608.372 379.536ZM349.219 0.268414C347.277 0.271962 345.415 1.04512 344.041 2.41856C342.668 3.792 341.895 5.65376 341.891 7.59609V371.873C341.895 373.815 342.668 375.677 344.041 377.051C345.415 378.424 347.277 379.197 349.219 379.201H608.372C610.314 379.197 612.176 378.424 613.549 377.051C614.923 375.677 615.696 373.815 615.699 371.873V7.59609C615.696 5.65376 614.923 3.792 613.549 2.41856C612.176 1.04512 610.314 0.271962 608.372 0.268414H349.219Z" fill="#E6E6E6"/>
<path d="M358.868 324.753H329.356V441.821H358.868V324.753Z" fill="#E0E0E0"/>
<path d="M353.258 441.822H358.868V425.878H347.38L353.258 441.822Z" fill="#FAFAFA"/>
<path d="M229.547 324.753H200.035V441.821H229.547V324.753Z" fill="#E0E0E0"/>
<path d="M358.868 324.753H224.662V432.038H358.868V324.753Z" fill="#FAFAFA"/>
<path d="M353.997 330.028V358.412H229.493V330.028H353.956M354.48 329.504H229.01V358.922H354.52V329.504H354.48Z" fill="#E0E0E0"/>
<path d="M230.258 441.822H224.662V425.878H236.136L230.258 441.822Z" fill="#FAFAFA"/>
<path d="M288.799 344.213C288.799 344.8 288.973 345.373 289.299 345.861C289.625 346.349 290.088 346.729 290.63 346.953C291.172 347.178 291.768 347.236 292.344 347.122C292.919 347.007 293.448 346.725 293.862 346.31C294.277 345.895 294.56 345.367 294.674 344.792C294.788 344.216 294.73 343.62 294.505 343.078C294.281 342.536 293.901 342.073 293.413 341.747C292.925 341.421 292.352 341.247 291.765 341.247C290.978 341.247 290.224 341.559 289.668 342.116C289.112 342.672 288.799 343.426 288.799 344.213Z" fill="#E6E6E6"/>
<path d="M353.997 364.196V392.581H229.493V364.196H353.956M354.48 363.686H229.01V393.104H354.52V363.7L354.48 363.686Z" fill="#E0E0E0"/>
<path d="M288.799 378.463C288.799 379.049 288.973 379.623 289.299 380.11C289.625 380.598 290.088 380.978 290.63 381.203C291.172 381.427 291.768 381.486 292.344 381.372C292.919 381.257 293.448 380.975 293.862 380.56C294.277 380.145 294.56 379.617 294.674 379.041C294.788 378.466 294.73 377.869 294.505 377.328C294.281 376.786 293.901 376.322 293.413 375.996C292.925 375.671 292.352 375.497 291.765 375.497C290.978 375.497 290.224 375.809 289.668 376.365C289.112 376.921 288.799 377.676 288.799 378.463Z" fill="#E6E6E6"/>
<path d="M353.997 398.379V426.777H229.493V398.379H353.956M354.48 397.855H229.01V427.287H354.52V397.855H354.48Z" fill="#E0E0E0"/>
<path d="M288.799 412.578C288.802 413.164 288.978 413.736 289.305 414.222C289.633 414.708 290.097 415.086 290.639 415.308C291.181 415.531 291.777 415.588 292.352 415.472C292.926 415.356 293.454 415.072 293.867 414.657C294.28 414.242 294.562 413.713 294.675 413.138C294.788 412.563 294.729 411.967 294.504 411.426C294.279 410.885 293.899 410.423 293.411 410.097C292.924 409.772 292.351 409.598 291.765 409.598C291.374 409.598 290.988 409.676 290.627 409.825C290.266 409.975 289.939 410.195 289.663 410.472C289.387 410.749 289.169 411.077 289.021 411.439C288.873 411.8 288.797 412.187 288.799 412.578Z" fill="#E6E6E6"/>
<path d="M211.523 256.764H182.011V441.835H211.523V256.764Z" fill="#E0E0E0"/>
<path d="M205.913 441.822H211.523V425.878H200.048L205.913 441.822Z" fill="#FAFAFA"/>
<path d="M101.232 256.764H71.72V441.835H101.232V256.764Z" fill="#E0E0E0"/>
<path d="M211.523 256.764H96.3335V432.051H211.523V256.764Z" fill="#FAFAFA"/>
<path d="M206.557 261.703V301.388H101.299V261.703H206.557ZM207.175 261.099H100.655V301.965H207.148V261.112L207.175 261.099Z" fill="#E0E0E0"/>
<path d="M206.557 306.232V411.491H156.418V306.232H206.557ZM207.175 305.615H155.814V412.108H207.175V305.615Z" fill="#E0E0E0"/>
<path d="M151.439 306.232V411.491H101.299V306.232H151.439ZM152.043 305.615H100.655V412.108H152.016V305.615H152.043Z" fill="#E0E0E0"/>
<path d="M101.943 441.822H96.3335V425.878H107.822L101.943 441.822Z" fill="#FAFAFA"/>
<path d="M150.956 281.565C150.953 282.155 151.125 282.733 151.451 283.224C151.777 283.716 152.241 284.1 152.785 284.327C153.33 284.555 153.929 284.616 154.508 284.503C155.087 284.389 155.619 284.106 156.037 283.69C156.455 283.274 156.74 282.743 156.856 282.165C156.972 281.587 156.914 280.987 156.689 280.442C156.464 279.897 156.082 279.43 155.592 279.102C155.101 278.774 154.525 278.599 153.935 278.599C153.147 278.599 152.391 278.911 151.833 279.467C151.275 280.023 150.959 280.777 150.956 281.565Z" fill="#E6E6E6"/>
<path d="M161.585 356.359C161.585 356.948 161.76 357.525 162.088 358.015C162.416 358.505 162.882 358.887 163.427 359.112C163.972 359.338 164.572 359.396 165.15 359.28C165.729 359.164 166.259 358.879 166.676 358.461C167.092 358.043 167.374 357.51 167.488 356.932C167.601 356.353 167.54 355.753 167.313 355.209C167.085 354.665 166.701 354.201 166.21 353.875C165.718 353.549 165.141 353.377 164.551 353.379C164.16 353.379 163.773 353.456 163.413 353.606C163.052 353.756 162.724 353.976 162.449 354.253C162.173 354.529 161.955 354.858 161.807 355.219C161.658 355.581 161.583 355.968 161.585 356.359Z" fill="#E6E6E6"/>
<path d="M140.34 356.359C140.342 356.945 140.519 357.517 140.846 358.003C141.174 358.489 141.638 358.867 142.18 359.089C142.722 359.312 143.318 359.368 143.893 359.252C144.467 359.136 144.994 358.853 145.408 358.438C145.821 358.022 146.102 357.494 146.216 356.919C146.329 356.344 146.27 355.748 146.045 355.207C145.82 354.666 145.44 354.203 144.952 353.878C144.465 353.553 143.892 353.379 143.306 353.379C142.915 353.379 142.528 353.456 142.168 353.606C141.807 353.756 141.479 353.976 141.204 354.253C140.928 354.529 140.71 354.858 140.562 355.219C140.413 355.581 140.338 355.968 140.34 356.359Z" fill="#E6E6E6"/>
<path d="M136.985 205.161H124.544C125.69 211.196 126.412 217.304 126.704 223.44C126.704 230.151 117.229 256.764 130.731 256.764C144.232 256.764 134.757 230.218 134.757 223.44C135.071 217.303 135.816 211.195 136.985 205.161Z" fill="#E0E0E0"/>
<path d="M89.65 232.379V240.431C89.6641 244.748 91.3852 248.884 94.4376 251.936C97.49 254.988 101.626 256.709 105.943 256.724H113.995C118.312 256.709 122.448 254.988 125.5 251.936C128.552 248.884 130.274 244.748 130.288 240.431V232.379H89.65Z" fill="#F5F5F5"/>
<path d="M262.602 307.682C262.602 317.076 273.11 324.753 285.954 324.753H297.549C310.393 324.753 320.901 317.076 320.901 307.682H262.602Z" fill="#E0E0E0"/>
<path d="M569.854 293.913C562.822 299.657 553.105 310.165 544.221 324.955C538.289 334.805 534.719 345.085 533.149 358.748C533.149 343.314 533.243 326.739 533.297 311.091C535.082 307.065 539.161 297.778 542.087 290.45C551.844 265.984 555.508 259.958 564.271 238.861C575.988 210.678 587.986 177.314 584.55 179.985C577.544 185.42 550.703 235.68 547.804 242.874C539.903 262.071 535.018 282.375 533.323 303.065C533.323 288.303 533.431 274.882 533.484 264.468C533.672 230.5 534.249 219.535 534.531 216.153C535.618 214.435 536.893 212.436 537.645 211.362C543.953 202.236 546.382 194.479 552.314 180.87C560.742 161.612 567.989 127.402 565.869 129.12C557.038 136.314 550.086 151.748 540.933 171.436C531.78 191.124 534.397 202.437 532.585 219.24C532.21 222.541 531.914 234.996 531.7 252.241C529.337 233.855 524.882 221.75 516.762 210.745C506.777 197.203 497.115 188.064 490.028 183.286C482.942 178.508 502.268 211.765 511.501 226.232C519.728 239.17 527.311 250.564 531.632 261.797C531.404 285.189 531.297 314.795 531.297 342.321C529.176 329.786 525.714 316.271 521.097 305.817C515.541 293.255 507.006 273.983 500.201 267.447C498.577 265.877 507.314 303.361 512.924 313.319C518.534 323.277 522.654 332.685 526.184 338.335C527.002 339.677 529.74 344.737 531.297 347.662C531.297 381.308 531.485 410.994 531.78 421.1H533.229C533.136 418.496 533.109 401.372 533.149 378.718C536.652 366.424 544.65 352.386 551.253 339.583C558.447 325.719 576.887 288.209 569.854 293.913Z" fill="#E0E0E0"/>
<path d="M553.522 441.822H511.461L508.281 400.593H556.702L553.522 441.822Z" fill="#F0F0F0"/>
<path d="M559.829 405.398H505.14L503.583 391.481H561.4L559.829 405.398Z" fill="#F5F5F5"/>
<path d="M166.765 27.5125H91.5423V110.117H166.765V27.5125Z" fill="#E0E0E0"/>
<path d="M174.911 27.5125H97.2058V110.117H174.911V27.5125Z" fill="#F5F5F5"/>
<path d="M168.402 103.607V34.0212L103.715 34.0212V103.607H168.402Z" fill="white"/>
<path d="M152.714 86.7243V50.8777H119.39V86.7243H152.714Z" fill="#F5F5F5"/>
<path d="M550.314 37.1349H480.433V113.874H550.314V37.1349Z" fill="#E0E0E0"/>
<path d="M557.883 37.1349H485.707V113.874H557.883V37.1349Z" fill="#F5F5F5"/>
<path d="M551.844 107.822V43.1877L491.76 43.1877V107.822H551.844Z" fill="white"/>
<path d="M521.795 94.2534C532.15 94.2534 540.544 85.8594 540.544 75.5048C540.544 65.1502 532.15 56.7561 521.795 56.7561C511.441 56.7561 503.046 65.1502 503.046 75.5048C503.046 85.8594 511.441 94.2534 521.795 94.2534Z" fill="#F5F5F5"/>
<path d="M244.914 76.7661H189.11V138.045H244.914V76.7661Z" fill="#E0E0E0"/>
<path d="M250.953 76.7661H193.311V138.045H250.953V76.7661Z" fill="#F5F5F5"/>
<path d="M246.121 133.213V81.5974H198.143V133.213H246.121Z" fill="white"/>
<path d="M222.139 94.3474L209.013 117.082H235.264L222.139 94.3474Z" fill="#F5F5F5"/>
<path d="M335.516 500C479.228 500 595.73 493.198 595.73 484.808C595.73 476.417 479.228 469.616 335.516 469.616C191.805 469.616 75.3033 476.417 75.3033 484.808C75.3033 493.198 191.805 500 335.516 500Z" fill="#F5F5F5"/>
<path d="M468.716 145.52L455.403 140.152C455.403 140.152 437.835 172.187 432.803 173.811C425.958 176.012 411.786 182.132 403.385 183.205C402.244 184.548 400.378 188.721 400.553 190.238C411.84 194.009 436.641 189.003 441.956 185.058C454.048 176.106 468.716 145.52 468.716 145.52Z" fill="#E58A7B"/>
<path d="M472.81 138.233C475.292 147.399 461.845 165.839 461.845 165.839L444.224 155.961C444.224 155.961 447.525 148.379 451.551 140.662C458.007 128.194 469.978 127.778 472.81 138.233Z" fill="#407BFF"/>
<path opacity="0.2" d="M472.81 138.233C475.292 147.399 461.845 165.839 461.845 165.839L444.224 155.961C444.224 155.961 447.525 148.379 451.551 140.662C458.007 128.194 469.978 127.778 472.81 138.233Z" fill="black"/>
<path opacity="0.2" d="M451.216 159.907L458.154 163.799L459.376 142.5C455.336 145.601 452.491 154.941 451.216 159.907Z" fill="black"/>
<path d="M461.214 131.335C461.214 131.335 447.498 161.853 455.497 218.676H509.542C510.401 210.382 507.556 169.906 517.849 130.825C511.921 129.666 505.922 128.899 499.893 128.53C492.245 128.087 484.578 128.087 476.93 128.53C471.628 129.068 466.375 130.006 461.214 131.335Z" fill="#407BFF"/>
<path opacity="0.2" d="M461.214 131.335C461.214 131.335 447.498 161.853 455.497 218.676H509.542C510.401 210.382 507.556 169.906 517.849 130.825C511.921 129.666 505.922 128.899 499.893 128.53C492.245 128.087 484.578 128.087 476.93 128.53C471.628 129.068 466.375 130.006 461.214 131.335Z" fill="black"/>
<g style="mix-blend-mode:multiply">
<path d="M448.679 486.015C448.599 487.465 469.092 488.632 494.444 488.632C519.795 488.632 540.436 487.465 540.517 486.015C540.597 484.566 520.117 483.412 494.752 483.412C469.387 483.412 448.773 484.579 448.679 486.015Z" fill="#E8ECF1"/>
</g>
<path d="M484.755 447.932L475.169 451.642L483.426 472.973L493.012 469.262L484.755 447.932Z" fill="#E58A7B"/>
<path d="M527.499 475.695H517.393L513.689 452.303H523.795L527.499 475.695Z" fill="#E58A7B"/>
<path d="M516.695 474.528H528.049C528.246 474.528 528.436 474.599 528.586 474.727C528.736 474.854 528.836 475.031 528.868 475.226L530.331 484.204C530.361 484.429 530.343 484.659 530.278 484.876C530.212 485.094 530.1 485.295 529.95 485.465C529.8 485.636 529.615 485.772 529.407 485.865C529.199 485.958 528.974 486.004 528.747 486.002C524.788 485.935 522.882 485.694 517.89 485.694C514.816 485.694 508.495 486.016 504.227 486.016C499.96 486.016 499.678 481.829 501.436 481.439C509.327 479.735 512.387 477.413 515.018 475.158C515.481 474.751 516.078 474.527 516.695 474.528Z" fill="#263238"/>
<path d="M483.144 471.065L493.88 467.925C494.072 467.871 494.276 467.884 494.459 467.962C494.642 468.04 494.793 468.178 494.887 468.354L498.913 476.407C499.006 476.611 499.054 476.833 499.053 477.058C499.052 477.282 499.001 477.504 498.905 477.707C498.81 477.911 498.67 478.09 498.498 478.234C498.325 478.378 498.123 478.483 497.906 478.54C494.001 479.614 491.384 480.272 486.499 481.694C483.13 482.674 479.694 484.271 476.366 485.331C474.058 486.069 468.636 486.096 465.831 486.096C461.684 486.096 460.758 481.721 462.543 481.52C467.039 481.023 467.643 481.251 470.126 480.003C474.188 478.227 477.87 475.685 480.969 472.515C481.554 471.848 482.304 471.348 483.144 471.065Z" fill="#263238"/>
<path d="M405.076 183.152L393.963 178.495L389.387 190.815C393.942 191.509 398.575 191.509 403.13 190.815L405.076 183.152Z" fill="#E58A7B"/>
<path d="M385.696 178.173L385.401 186.359L389.387 190.788L393.963 178.468L385.696 178.173Z" fill="#E58A7B"/>
<path d="M486.07 449.743L476.454 453.455L480.713 464.485L490.328 460.773L486.07 449.743Z" fill="#CF6F64"/>
<path d="M523.795 452.303H513.689L515.608 464.368H525.714L523.795 452.303Z" fill="#CF6F64"/>
<path opacity="0.2" d="M453.779 203.31C453.981 205.739 454.209 208.222 454.504 210.772L494.685 197.727C500.96 195.867 506.414 191.924 510.146 186.547C510.307 182.964 510.508 179.193 510.817 175.26C510.951 173.355 511.112 171.395 511.287 169.409C511.461 167.423 511.703 165.222 511.958 163.101L453.779 203.31Z" fill="black"/>
<path d="M466.905 159.29L465.562 159.129C466.354 152.419 471.36 147.131 476.635 147.265V148.607C472.018 148.513 467.616 153.278 466.905 159.29Z" fill="white"/>
<path d="M474.058 171.677H473.83V170.335C478.446 170.51 482.781 165.692 483.493 159.693L484.835 159.854C484.123 166.416 479.278 171.677 474.058 171.677Z" fill="white"/>
<path d="M499.141 102.668C497.249 110.063 495.021 123.604 499.893 128.53C499.893 128.53 496.484 136.032 482.754 136.032C470.206 136.032 476.93 128.53 476.93 128.53C485.277 126.57 485.425 120.477 484.325 114.706L499.141 102.668Z" fill="#E58A7B"/>
<path d="M493.102 107.58L484.338 114.706C484.61 116.032 484.767 117.379 484.808 118.732C487.371 121.282 492.511 114.827 493.035 111.526C493.301 110.226 493.323 108.888 493.102 107.58Z" fill="#CF6F64"/>
<path d="M469.267 102.574C469.876 103.631 470.698 104.551 471.679 105.276C472.661 106.001 473.781 106.516 474.97 106.788C478.191 107.5 479.802 104.534 478.916 101.554C478.124 98.8701 475.48 95.2599 472.206 95.8773C471.504 96.0218 470.848 96.3322 470.291 96.7826C469.734 97.2331 469.293 97.8104 469.006 98.4662C468.718 99.122 468.591 99.8372 468.637 100.552C468.682 101.267 468.898 101.96 469.267 102.574Z" fill="#CF6F64"/>
<path d="M474.595 78.9135C469.575 81.2084 467.804 101.152 474.112 104.104C480.419 107.057 484.097 74.5518 474.595 78.9135Z" fill="#263238"/>
<path d="M500.671 91.5422C499.463 101.554 499.329 107.446 493.961 112.572C492.297 114.274 490.196 115.482 487.889 116.064C485.582 116.647 483.159 116.58 480.887 115.872C478.616 115.164 476.584 113.842 475.016 112.052C473.449 110.261 472.407 108.073 472.004 105.728C470.381 96.736 472.622 81.8793 482.66 77.8934C484.77 76.9631 487.089 76.6138 489.379 76.8819C491.669 77.1499 493.845 78.0255 495.682 79.4178C497.519 80.8102 498.951 82.6686 499.828 84.8005C500.705 86.9323 500.996 89.26 500.671 91.5422Z" fill="#E58A7B"/>
<path d="M484.177 84.0938C491.612 82.2015 497.074 80.9131 495.115 87.1001C492.525 95.3672 489.411 103.366 493.585 103.728C496.135 103.956 507.408 99.1786 505.972 94.3338C504.724 90.1197 509.998 88.9655 510.938 86.8316C514.414 79.1013 504.469 80.1213 506.241 75.4241C508.012 70.7269 498.188 63.1576 492.82 66.9288C484.083 73.0218 469.092 72.9278 476.97 62.9026C482.62 55.7494 472.541 57.2123 472.541 57.2123C472.541 57.2123 478.634 60.8224 468.381 66.4054C457.537 72.3642 467.482 88.375 484.177 84.0938Z" fill="#263238"/>
<path d="M504.617 102.574C503.149 104.698 500.944 106.2 498.43 106.788C495.115 107.5 493.84 104.534 495.088 101.554C496.202 98.8701 499.262 95.2599 502.429 95.8773C505.596 96.4946 506.321 99.9437 504.617 102.574Z" fill="#E58A7B"/>
<path d="M455.497 218.676C455.497 218.676 446.425 299.871 445.713 330.685C444.989 362.733 476.46 462.731 476.46 462.731L492.565 456.02C492.565 456.02 473.776 364.653 476.46 333.181C479.305 298.865 491.062 218.73 491.062 218.73L455.497 218.676Z" fill="#407BFF"/>
<path opacity="0.2" d="M478.044 240.968C470.81 255.972 475.682 285.645 479.601 303.226C481.09 290.812 482.862 277.338 484.539 264.87C484.378 245.705 482.889 230.902 478.044 240.968Z" fill="black"/>
<path d="M491.854 450.706C491.934 450.706 493.759 455.833 493.759 455.833L475.185 463.644L472.259 458.195L491.854 450.706Z" fill="#407BFF"/>
<path d="M474.675 218.676C474.675 218.676 481.614 295.899 486.204 324.82C491.25 356.506 511.032 462.033 511.032 462.033H529.539C529.539 462.033 518.453 359.07 516.36 327.692C514.078 293.657 509.542 218.676 509.542 218.676H474.675Z" fill="#407BFF"/>
<path d="M529.821 457.215C529.901 457.215 530.438 462.382 530.438 462.382H510.092L508.643 456.45L529.821 457.215Z" fill="#407BFF"/>
<path opacity="0.2" d="M522.734 451.095C522.693 451.096 522.652 451.081 522.62 451.054C522.588 451.027 522.566 450.989 522.56 450.947C522.453 450.008 512.454 357.003 510.575 328.82C508.535 298.247 504.429 230.433 504.388 229.748C504.387 229.726 504.389 229.704 504.397 229.682C504.404 229.661 504.415 229.642 504.431 229.626C504.446 229.609 504.464 229.596 504.485 229.587C504.505 229.578 504.527 229.574 504.55 229.574C504.594 229.574 504.636 229.59 504.668 229.62C504.701 229.65 504.721 229.691 504.724 229.735C504.724 230.419 508.871 298.18 510.911 328.806C512.79 356.989 522.788 449.928 522.882 450.934C522.886 450.956 522.885 450.979 522.88 451.001C522.874 451.023 522.864 451.043 522.85 451.061C522.836 451.078 522.819 451.093 522.799 451.104C522.779 451.114 522.757 451.12 522.734 451.122V451.095Z" fill="black"/>
<path d="M485.318 94.3337C485.318 95.1524 484.808 95.81 484.271 95.81C483.734 95.81 483.345 95.1524 483.399 94.3337C483.452 93.515 483.909 92.8574 484.445 92.8574C484.982 92.8574 485.371 93.5285 485.318 94.3337Z" fill="#263238"/>
<path d="M476.111 94.3337C476.111 95.1524 475.588 95.81 475.064 95.81C474.541 95.81 474.138 95.1524 474.179 94.3337C474.219 93.515 474.702 92.8574 475.239 92.8574C475.776 92.8574 476.165 93.5285 476.111 94.3337Z" fill="#263238"/>
<path d="M479.01 94.7498C477.89 97.2496 476.446 99.5914 474.715 101.715C476.057 103.057 478.567 102.44 478.567 102.44L479.01 94.7498Z" fill="#DF5753"/>
<path d="M479.252 105.862C479.22 105.862 479.19 105.856 479.161 105.844C479.132 105.831 479.107 105.813 479.085 105.791C479.064 105.768 479.047 105.741 479.037 105.712C479.026 105.683 479.022 105.652 479.023 105.621C479.027 105.555 479.055 105.494 479.103 105.449C479.15 105.404 479.213 105.379 479.278 105.379C480.305 105.386 481.32 105.163 482.249 104.727C483.178 104.29 483.997 103.651 484.647 102.856C484.693 102.815 484.753 102.793 484.814 102.793C484.876 102.793 484.936 102.815 484.982 102.856C485.026 102.901 485.05 102.961 485.05 103.024C485.05 103.086 485.026 103.146 484.982 103.191C484.287 104.036 483.411 104.714 482.42 105.177C481.428 105.639 480.346 105.873 479.252 105.862Z" fill="#263238"/>
<path d="M486.955 91.8643C486.891 91.8973 486.819 91.9145 486.747 91.9145C486.675 91.9145 486.603 91.8973 486.539 91.8643C486.037 91.5397 485.466 91.3378 484.871 91.2749C484.277 91.212 483.676 91.2897 483.117 91.502C483.062 91.5292 483.003 91.5453 482.942 91.5492C482.881 91.5531 482.82 91.5448 482.763 91.5248C482.705 91.5048 482.652 91.4735 482.607 91.4327C482.562 91.3918 482.525 91.3424 482.499 91.2872C482.45 91.1678 482.448 91.0336 482.496 90.9133C482.544 90.793 482.636 90.696 482.754 90.643C483.456 90.3565 484.216 90.2434 484.971 90.3135C485.726 90.3836 486.452 90.6348 487.089 91.0456C487.141 91.0806 487.185 91.1255 487.219 91.1776C487.253 91.2297 487.276 91.288 487.287 91.3492C487.298 91.4104 487.297 91.4732 487.284 91.534C487.271 91.5947 487.246 91.6523 487.21 91.7033C487.142 91.7802 487.054 91.8361 486.955 91.8643Z" fill="#263238"/>
<path d="M472.555 89.1802C472.483 89.1629 472.418 89.1256 472.367 89.0728C472.322 89.0291 472.287 88.9769 472.262 88.9192C472.238 88.8616 472.226 88.7998 472.226 88.7373C472.226 88.6748 472.238 88.6129 472.262 88.5553C472.287 88.4977 472.322 88.4455 472.367 88.4018C472.881 87.8248 473.522 87.3745 474.239 87.0858C474.956 86.7972 475.73 86.678 476.5 86.7376C476.562 86.7471 476.621 86.7692 476.674 86.8025C476.727 86.8358 476.772 86.8796 476.808 86.9312C476.843 86.9828 476.867 87.0411 476.879 87.1024C476.891 87.1638 476.89 87.2269 476.876 87.2879C476.847 87.4121 476.774 87.5216 476.67 87.5957C476.567 87.6699 476.439 87.7036 476.312 87.6905C475.703 87.652 475.092 87.7529 474.527 87.9854C473.962 88.218 473.457 88.576 473.051 89.0325C472.99 89.1005 472.911 89.1502 472.824 89.1762C472.736 89.2023 472.643 89.2036 472.555 89.1802Z" fill="#263238"/>
<path d="M523.043 144.031L509.086 140.313C509.086 140.313 495.397 174.012 490.552 176.2C483.976 179.206 467.321 189.62 460.235 194.546C459.845 196.223 460.154 200.666 461.04 201.887C473.118 199.686 496.242 190.788 501.074 186.265C512.092 175.945 523.043 144.031 523.043 144.031Z" fill="#E58A7B"/>
<path d="M513.3 476.299C512.619 476.353 511.94 476.168 511.381 475.776C511.208 475.62 511.079 475.421 511.006 475.2C510.933 474.979 510.919 474.743 510.965 474.514C510.973 474.372 511.02 474.234 511.1 474.116C511.181 473.998 511.291 473.904 511.421 473.843C512.548 473.266 515.702 475.266 516.064 475.494C516.104 475.519 516.135 475.555 516.152 475.599C516.169 475.643 516.171 475.691 516.158 475.736C516.147 475.782 516.124 475.825 516.091 475.861C516.058 475.896 516.016 475.922 515.97 475.937C515.096 476.152 514.2 476.273 513.3 476.299ZM511.958 474.206C511.856 474.183 511.751 474.183 511.649 474.206C511.598 474.232 511.555 474.272 511.526 474.322C511.498 474.372 511.484 474.43 511.488 474.487C511.452 474.644 511.458 474.806 511.505 474.96C511.552 475.113 511.639 475.251 511.756 475.36C512.28 475.83 513.595 475.883 515.326 475.548C514.295 474.869 513.135 474.412 511.917 474.206H511.958Z" fill="#407BFF"/>
<path d="M515.903 475.937C515.868 475.948 515.831 475.948 515.796 475.937C514.789 475.373 512.897 473.159 513.179 472.032C513.221 471.853 513.322 471.693 513.466 471.579C513.609 471.465 513.787 471.402 513.971 471.401C514.151 471.377 514.334 471.392 514.508 471.445C514.682 471.498 514.842 471.589 514.977 471.709C516.091 472.662 516.158 475.588 516.158 475.736C516.165 475.78 516.157 475.825 516.135 475.864C516.113 475.903 516.079 475.933 516.038 475.95C515.993 475.96 515.946 475.955 515.903 475.937ZM514.105 471.844H514.011C513.702 471.844 513.662 472.018 513.649 472.085C513.488 472.743 514.682 474.42 515.675 475.212C515.671 474.079 515.319 472.973 514.669 472.045C514.513 471.909 514.312 471.837 514.105 471.844Z" fill="#407BFF"/>
<path d="M477.668 474.622C476.847 474.908 475.953 474.908 475.131 474.622C474.945 474.521 474.787 474.374 474.672 474.196C474.557 474.018 474.489 473.813 474.474 473.602C474.457 473.469 474.474 473.334 474.523 473.21C474.572 473.085 474.652 472.975 474.756 472.89C475.829 471.924 480.218 472.89 480.714 473.078C480.762 473.09 480.803 473.118 480.833 473.157C480.862 473.196 480.877 473.244 480.876 473.293C480.878 473.343 480.865 473.393 480.838 473.436C480.812 473.479 480.774 473.513 480.728 473.535C479.74 473.981 478.716 474.344 477.668 474.622ZM475.48 473.025C475.327 473.055 475.184 473.125 475.064 473.226C475.022 473.258 474.989 473.301 474.97 473.351C474.951 473.401 474.946 473.455 474.957 473.508C474.966 473.649 475.01 473.785 475.085 473.905C475.16 474.024 475.263 474.123 475.386 474.192C476.098 474.568 477.749 474.273 479.882 473.374C478.445 473.011 476.957 472.893 475.48 473.025Z" fill="#407BFF"/>
<path d="M480.688 473.535H480.58C479.238 473.293 476.554 471.75 476.474 470.595C476.474 470.327 476.594 469.951 477.239 469.737C477.456 469.659 477.687 469.626 477.918 469.64C478.148 469.654 478.374 469.714 478.581 469.817C480.03 470.528 480.795 473.105 480.835 473.226C480.845 473.266 480.843 473.309 480.832 473.349C480.82 473.389 480.798 473.425 480.768 473.454C480.748 473.487 480.721 473.515 480.688 473.535ZM477.507 470.139H477.373C476.957 470.287 476.957 470.461 476.957 470.515C476.957 471.213 478.903 472.488 480.258 472.917C479.946 471.839 479.285 470.895 478.379 470.233C478.11 470.096 477.799 470.063 477.507 470.139Z" fill="#407BFF"/>
<path d="M461.375 193.754L447.378 200.196L445.754 204.222L450.921 207.698C450.921 207.698 460.583 206.651 463.335 200.437L461.375 193.754Z" fill="#E58A7B"/>
<path d="M461.966 202.115C461.653 199.425 460.765 196.835 459.362 194.519L461.577 192.855C463.242 195.523 464.305 198.523 464.69 201.645L461.966 202.115Z" fill="#263238"/>
<path d="M464.355 195.66C464.651 196.125 464.796 196.671 464.771 197.222C464.746 197.773 464.552 198.302 464.215 198.739C463.878 199.176 463.415 199.498 462.889 199.663C462.362 199.827 461.798 199.825 461.272 199.657C460.747 199.489 460.286 199.163 459.952 198.724C459.619 198.285 459.428 197.753 459.407 197.202C459.386 196.651 459.536 196.107 459.835 195.644C460.134 195.18 460.569 194.82 461.08 194.613C461.654 194.321 462.319 194.267 462.933 194.463C463.546 194.659 464.057 195.089 464.355 195.66Z" fill="#263238"/>
<path d="M437.916 205.403L439.781 207.282L452.343 201.914L447.378 200.196L437.916 205.403Z" fill="#E58A7B"/>
<path opacity="0.2" d="M491.854 450.706C491.934 450.706 493.759 455.833 493.759 455.833L475.185 463.644L472.259 458.195L491.854 450.706Z" fill="black"/>
<path opacity="0.2" d="M529.821 457.215C529.901 457.215 530.438 462.382 530.438 462.382H510.092L508.643 456.45L529.821 457.215Z" fill="black"/>
<path d="M526.68 140.165C530.371 152.069 515.944 168.349 515.944 168.349L496.014 160.216C498.376 153.335 501.1 146.584 504.174 139.991C510.294 126.798 522.949 128.154 526.68 140.165Z" fill="#407BFF"/>
<path opacity="0.2" d="M526.68 140.165C530.371 152.069 515.944 168.349 515.944 168.349L496.014 160.216C498.376 153.335 501.1 146.584 504.174 139.991C510.294 126.798 522.949 128.154 526.68 140.165Z" fill="black"/>
<path d="M328.645 20.8959H320.069V22.2782H328.645V20.8959Z" fill="#407BFF"/>
<path d="M439.658 75.6071L438.62 98.6404L440.001 98.7026L441.039 75.6693L439.658 75.6071Z" fill="#407BFF"/>
<path d="M436.99 27.0962H278.626L263.89 356.869H422.254L436.99 27.0962Z" fill="#407BFF"/>
<path opacity="0.56" d="M432.266 31.6324H273.902L259.166 361.405H417.53L432.266 31.6324Z" fill="#FAFAFA"/>
<path opacity="0.07" d="M427.542 36.1552H269.178L254.429 365.928H412.792L427.542 36.1552Z" fill="#407BFF"/>
<path d="M409.518 179.984H274.345L273.218 205.215H408.391L409.518 179.984Z" fill="white"/>
<path d="M348.682 161.571H275.164L274.667 172.858H348.185L348.682 161.571Z" fill="#407BFF"/>
<path d="M406.471 248.081H271.299L270.171 273.312H405.344L406.471 248.081Z" fill="white"/>
<path opacity="0.47" d="M381.683 307.387H290.785L289.43 337.623H380.328L381.683 307.387Z" fill="#407BFF"/>
<path d="M375.604 342.321H284.706C284.666 342.331 284.625 342.331 284.585 342.321C284.572 342.282 284.572 342.239 284.585 342.2L285.927 311.95C285.927 311.929 285.931 311.909 285.939 311.89C285.948 311.871 285.96 311.854 285.975 311.84C285.99 311.826 286.008 311.816 286.027 311.809C286.047 311.803 286.068 311.8 286.088 311.802H376.986C377.003 311.794 377.021 311.79 377.04 311.79C377.059 311.79 377.077 311.794 377.094 311.802C377.103 311.818 377.108 311.837 377.108 311.856C377.108 311.875 377.103 311.893 377.094 311.91L375.778 342.227C375.762 342.258 375.737 342.284 375.706 342.301C375.675 342.318 375.639 342.325 375.604 342.321ZM284.867 341.999H375.443L376.785 312.071H286.209L284.867 341.999Z" fill="white"/>
<path d="M332.805 229.668H272.117L271.621 240.968H332.295L332.805 229.668Z" fill="#407BFF"/>
<path d="M379.952 98.4809C379.605 105.824 376.994 112.879 372.477 118.679C369.133 123.06 364.83 126.616 359.898 129.075C354.966 131.534 349.536 132.83 344.025 132.865C339.572 132.899 335.158 132.02 331.057 130.284C326.956 128.548 323.254 125.99 320.178 122.769C317.103 119.548 314.72 115.731 313.175 111.554C311.631 107.377 310.958 102.928 311.198 98.4809C311.67 89.2528 315.65 80.5537 322.323 74.1624C328.996 67.7711 337.859 64.1706 347.098 64.0971C351.555 64.0556 355.973 64.9283 360.079 66.6616C364.185 68.3948 367.893 70.9516 370.972 74.174C374.051 77.3964 376.436 81.216 377.981 85.3968C379.525 89.5775 380.196 94.0306 379.952 98.4809Z" fill="white"/>
<path d="M383.187 71.2904C383.099 73.2428 382.405 75.1194 381.2 76.6586C380.309 77.8221 379.164 78.7667 377.852 79.4203C376.54 80.0739 375.097 80.4191 373.631 80.4298C372.211 80.4384 370.811 80.0992 369.552 79.4419C368.293 78.7845 367.215 77.8289 366.411 76.6586C365.346 75.0772 364.819 73.1948 364.908 71.2904C365.037 68.8403 366.097 66.532 367.87 64.8362C369.643 63.1404 371.996 62.1848 374.45 62.1643C375.633 62.1535 376.807 62.3852 377.897 62.845C378.988 63.3049 379.973 63.9832 380.791 64.8382C381.61 65.6932 382.245 66.7068 382.657 67.8164C383.069 68.9261 383.249 70.1083 383.187 71.2904Z" fill="#407BFF"/>
<path d="M288.906 192.6C288.842 193.681 288.37 194.698 287.585 195.445C286.801 196.192 285.762 196.614 284.679 196.626C284.156 196.632 283.637 196.531 283.155 196.329C282.672 196.127 282.236 195.828 281.874 195.45C281.512 195.073 281.231 194.625 281.048 194.135C280.866 193.645 280.786 193.122 280.814 192.6C280.872 191.516 281.342 190.496 282.128 189.747C282.914 188.999 283.956 188.579 285.041 188.574C285.564 188.569 286.082 188.672 286.563 188.875C287.045 189.078 287.48 189.377 287.842 189.754C288.204 190.131 288.485 190.577 288.668 191.067C288.851 191.556 288.932 192.078 288.906 192.6Z" fill="#263238"/>
<path d="M306.998 192.6C306.936 193.683 306.465 194.701 305.68 195.449C304.895 196.197 303.854 196.618 302.77 196.626C302.248 196.631 301.731 196.528 301.25 196.325C300.769 196.122 300.335 195.823 299.974 195.445C299.613 195.068 299.333 194.621 299.152 194.132C298.97 193.643 298.891 193.121 298.918 192.6C298.976 191.519 299.445 190.5 300.228 189.752C301.011 189.004 302.049 188.582 303.132 188.574C303.655 188.568 304.174 188.669 304.657 188.871C305.139 189.073 305.575 189.372 305.937 189.75C306.299 190.127 306.58 190.575 306.763 191.065C306.945 191.555 307.025 192.078 306.998 192.6Z" fill="#263238"/>
<path d="M325.102 192.6C325.041 193.683 324.569 194.701 323.784 195.449C322.999 196.197 321.959 196.618 320.874 196.626C320.352 196.63 319.834 196.528 319.353 196.325C318.871 196.122 318.436 195.823 318.074 195.446C317.712 195.069 317.431 194.622 317.248 194.133C317.065 193.644 316.984 193.122 317.009 192.6C317.071 191.517 317.542 190.499 318.327 189.751C319.112 189.003 320.153 188.582 321.237 188.574C321.76 188.568 322.279 188.669 322.761 188.871C323.244 189.073 323.679 189.372 324.042 189.75C324.404 190.127 324.685 190.575 324.867 191.065C325.05 191.555 325.13 192.078 325.102 192.6Z" fill="#263238"/>
<path d="M285.86 260.696C285.795 261.778 285.323 262.795 284.539 263.542C283.754 264.289 282.716 264.711 281.632 264.722C281.11 264.727 280.592 264.624 280.11 264.421C279.629 264.218 279.194 263.919 278.832 263.542C278.47 263.165 278.189 262.719 278.006 262.229C277.823 261.74 277.742 261.218 277.767 260.696C277.829 259.614 278.3 258.595 279.085 257.847C279.87 257.099 280.91 256.679 281.995 256.67C282.517 256.666 283.035 256.768 283.517 256.971C283.998 257.174 284.433 257.473 284.795 257.85C285.157 258.227 285.438 258.674 285.621 259.163C285.804 259.653 285.886 260.174 285.86 260.696Z" fill="#263238"/>
<path d="M303.951 260.696C303.89 261.777 303.421 262.793 302.638 263.541C301.856 264.288 300.819 264.711 299.737 264.722C299.214 264.729 298.695 264.628 298.213 264.425C297.73 264.223 297.294 263.924 296.932 263.547C296.57 263.169 296.289 262.722 296.106 262.231C295.924 261.741 295.844 261.219 295.872 260.696C295.933 259.614 296.404 258.595 297.189 257.847C297.975 257.099 299.015 256.679 300.099 256.67C300.621 256.666 301.138 256.768 301.619 256.971C302.1 257.174 302.534 257.474 302.895 257.851C303.256 258.228 303.536 258.675 303.717 259.164C303.899 259.654 303.978 260.175 303.951 260.696Z" fill="#263238"/>
<path d="M322.096 260.696C322.034 261.779 321.563 262.797 320.778 263.545C319.993 264.293 318.952 264.714 317.868 264.722C317.346 264.725 316.829 264.621 316.349 264.417C315.868 264.214 315.434 263.915 315.072 263.538C314.711 263.161 314.43 262.715 314.246 262.227C314.062 261.738 313.979 261.217 314.003 260.696C314.068 259.615 314.54 258.598 315.324 257.851C316.109 257.103 317.147 256.681 318.231 256.67C318.754 256.664 319.272 256.765 319.755 256.967C320.237 257.169 320.673 257.468 321.035 257.846C321.398 258.223 321.679 258.671 321.861 259.161C322.043 259.651 322.123 260.174 322.096 260.696Z" fill="#263238"/>
<path d="M340.16 260.696C340.095 261.778 339.623 262.795 338.839 263.542C338.054 264.289 337.016 264.711 335.932 264.722C335.41 264.725 334.893 264.621 334.413 264.417C333.932 264.214 333.498 263.915 333.136 263.538C332.775 263.162 332.494 262.716 332.31 262.227C332.126 261.738 332.044 261.218 332.067 260.696C332.132 259.615 332.604 258.598 333.388 257.851C334.173 257.104 335.211 256.682 336.295 256.67C336.817 256.666 337.335 256.768 337.817 256.971C338.298 257.174 338.733 257.473 339.095 257.85C339.457 258.227 339.738 258.674 339.921 259.163C340.104 259.653 340.186 260.174 340.16 260.696Z" fill="#263238"/>
<path d="M358.331 260.696C358.267 261.778 357.795 262.795 357.01 263.542C356.226 264.289 355.187 264.711 354.104 264.722C353.581 264.729 353.062 264.628 352.58 264.425C352.097 264.223 351.661 263.924 351.299 263.547C350.937 263.169 350.656 262.722 350.474 262.231C350.291 261.741 350.211 261.219 350.239 260.696C350.3 259.614 350.771 258.595 351.556 257.847C352.342 257.099 353.382 256.679 354.466 256.67C354.989 256.666 355.507 256.768 355.988 256.971C356.47 257.174 356.905 257.473 357.267 257.85C357.629 258.227 357.91 258.674 358.093 259.163C358.276 259.653 358.357 260.174 358.331 260.696Z" fill="#263238"/>
<path d="M355.585 96.6898C361.202 91.1966 361.5 82.3917 356.251 77.0235C351.001 71.6553 342.192 71.7567 336.574 77.2498C330.957 82.743 330.659 91.5478 335.909 96.916C341.158 102.284 349.968 102.183 355.585 96.6898Z" fill="#407BFF"/>
<path d="M372.477 118.679C369.133 123.059 364.83 126.616 359.898 129.075C354.966 131.534 349.536 132.83 344.025 132.864C338.681 132.91 333.408 131.639 328.671 129.166C323.934 126.692 319.878 123.09 316.862 118.679C323.384 112.183 333.705 107.942 345.139 107.942C356.573 107.942 366.532 112.183 372.477 118.679Z" fill="#407BFF"/>
<path opacity="0.1" d="M355.585 96.6898C361.202 91.1966 361.5 82.3917 356.251 77.0235C351.001 71.6553 342.192 71.7567 336.574 77.2498C330.957 82.743 330.659 91.5478 335.909 96.916C341.158 102.284 349.968 102.183 355.585 96.6898Z" fill="white"/>
<path opacity="0.1" d="M372.477 118.679C369.133 123.059 364.83 126.616 359.898 129.075C354.966 131.534 349.536 132.83 344.025 132.864C338.681 132.91 333.408 131.639 328.671 129.166C323.934 126.692 319.878 123.09 316.862 118.679C323.384 112.183 333.705 107.942 345.139 107.942C356.573 107.942 366.532 112.183 372.477 118.679Z" fill="white"/>
<path d="M175.019 211.295C173.744 214.086 172.402 217.16 171.234 220.139C170.067 223.119 168.872 226.192 167.839 229.252C165.729 235.282 164.122 241.477 163.034 247.772L162.739 249.745C162.711 250.084 162.743 250.424 162.833 250.752C163.15 251.864 163.648 252.916 164.309 253.865C166.033 256.322 168.032 258.574 170.268 260.576C172.625 262.768 175.098 264.834 177.676 266.763C180.253 268.749 182.964 270.681 185.635 272.507L183.125 277.217C176.748 274.439 170.695 270.969 165.074 266.87C162.076 264.683 159.369 262.121 157.022 259.247C155.63 257.536 154.545 255.597 153.814 253.516C153.389 252.216 153.172 250.858 153.17 249.49C153.17 249.168 153.17 248.698 153.17 248.47V247.813L153.304 246.47C154.074 239.478 155.544 232.581 157.693 225.883C158.74 222.582 159.853 219.294 161.128 216.086C162.403 212.879 163.719 209.738 165.342 206.477L175.019 211.295Z" fill="#E58A7B"/>
<path d="M183.742 271.675L193.231 266.87L190.775 277.284C190.775 277.284 184.266 279.11 181.246 275.942L183.742 271.675Z" fill="#E58A7B"/>
<path d="M201.914 268.574L199.391 277.19L190.775 277.284L193.231 266.87L201.914 268.574Z" fill="#E58A7B"/>
<path d="M215.308 161.048C215.815 162.908 216.522 164.708 217.415 166.416C217.154 166.712 216.818 166.932 216.442 167.053C216.066 167.173 215.665 167.19 215.281 167.101L215.308 161.048Z" fill="#DF5753"/>
<path d="M215.026 161.128C215.582 161.128 216.032 160.437 216.032 159.585C216.032 158.733 215.582 158.042 215.026 158.042C214.47 158.042 214.019 158.733 214.019 159.585C214.019 160.437 214.47 161.128 215.026 161.128Z" fill="#263238"/>
<path d="M214.73 158.095L216.77 157.518C216.77 157.518 215.777 159.102 214.73 158.095Z" fill="#263238"/>
<path d="M189.097 170.899C190.318 177.139 191.54 188.587 187.164 192.761C187.164 192.761 188.882 199.095 200.491 199.095C213.254 199.095 206.584 192.761 206.584 192.761C199.619 191.097 199.793 185.93 201.015 181.072L189.097 170.899Z" fill="#E58A7B"/>
<path d="M185.702 156.673C186.346 167.101 186.399 171.53 191.66 176.885C199.592 184.937 212.261 181.877 214.744 171.516C216.985 162.122 215.563 146.661 205.349 142.514C203.108 141.591 200.667 141.254 198.259 141.537C195.851 141.82 193.555 142.712 191.588 144.129C189.621 145.547 188.048 147.443 187.018 149.638C185.988 151.833 185.535 154.254 185.702 156.673Z" fill="#E58A7B"/>
<path d="M186.735 144.943C181.501 146.849 174.522 145.426 177.26 161.571C180.159 178.669 175.703 184.293 175.703 184.293C175.703 184.293 195.552 188.52 215.818 184.038C215.818 184.038 209.631 173.221 211.362 165.249C213.576 155.183 211.832 151.466 211.832 151.466C211.832 151.466 194.09 142.259 186.735 144.943Z" fill="#263238"/>
<path d="M208.879 162.108C208.885 164.091 209.452 166.031 210.516 167.705C211.939 169.879 213.617 169.047 214.033 166.738C214.408 164.712 214.127 161.128 212.315 159.733C210.503 158.337 208.906 159.706 208.879 162.108Z" fill="#E58A7B"/>
<path d="M182.185 146.701C180.682 142.474 187.849 135.965 203.014 138.649C218.18 141.333 218.837 153.962 218.837 153.962L215.777 150.312L215.912 154.15L200.33 157.143L182.185 146.701Z" fill="#263238"/>
<path d="M183.474 193.472C183.384 192.86 183.538 192.236 183.901 191.735C184.265 191.233 184.81 190.894 185.42 190.788C190.144 190.01 200.88 188.426 206.275 189.178C210.302 189.741 211.349 192.077 211.523 193.996C211.55 194.332 211.505 194.67 211.391 194.987C211.277 195.304 211.096 195.593 210.861 195.835C210.626 196.076 210.342 196.265 210.028 196.387C209.713 196.51 209.377 196.564 209.04 196.546L185.715 195.499C185.165 195.471 184.642 195.254 184.233 194.885C183.825 194.516 183.557 194.017 183.474 193.472Z" fill="#407BFF"/>
<path opacity="0.6" d="M183.474 193.472C183.384 192.86 183.538 192.236 183.901 191.735C184.265 191.233 184.81 190.894 185.42 190.788C190.144 190.01 200.88 188.426 206.275 189.178C210.302 189.741 211.349 192.077 211.523 193.996C211.55 194.332 211.505 194.67 211.391 194.987C211.277 195.304 211.096 195.593 210.861 195.835C210.626 196.076 210.342 196.265 210.028 196.387C209.713 196.51 209.377 196.564 209.04 196.546L185.715 195.499C185.165 195.471 184.642 195.254 184.233 194.885C183.825 194.516 183.557 194.017 183.474 193.472Z" fill="black"/>
<path d="M196.962 427.931L205.618 433.944L220.099 414.309L211.442 408.31L196.962 427.931Z" fill="#E58A7B"/>
<path d="M176.777 427.542L185.916 432.749L198.733 411.987L189.594 406.78L176.777 427.542Z" fill="#E58A7B"/>
<path d="M220.085 414.309L212.623 424.428L203.967 418.429L211.429 408.31L220.085 414.309Z" fill="#CF6F64"/>
<path d="M189.58 406.78L198.733 412.001L192.13 422.697L182.977 417.476L189.58 406.78Z" fill="#CF6F64"/>
<path d="M204.262 259.019C204.262 259.019 238.056 301.602 231.708 342.334C226.594 375.228 196.935 419.771 196.935 419.771L182.991 412.846C192.819 393.152 201.207 372.77 208.087 351.863C210.209 345.372 210.828 338.483 209.898 331.718C208.968 324.952 206.514 318.487 202.719 312.809C185.594 287.806 158.162 302.689 176.616 259.019H204.262Z" fill="#407BFF"/>
<path opacity="0.6" d="M204.262 259.019C204.262 259.019 238.056 301.602 231.708 342.334C226.594 375.228 196.935 419.771 196.935 419.771L182.991 412.846C192.819 393.152 201.207 372.77 208.087 351.863C210.209 345.372 210.828 338.483 209.898 331.718C208.968 324.952 206.514 318.487 202.719 312.809C185.594 287.806 158.162 302.689 176.616 259.019H204.262Z" fill="black"/>
<path opacity="0.4" d="M220.837 286.37L215.925 281.485C215.925 281.874 225.44 340.617 228.111 357.124C229.687 352.302 230.894 347.367 231.721 342.361C234.861 322.378 228.299 301.965 220.837 286.37Z" fill="black"/>
<path d="M219.347 259.019C219.347 259.019 260.039 312.54 261.193 344.629C262.146 371.47 216.905 423.475 216.905 423.475L203.752 414.967C203.752 414.967 230.231 378.033 236.901 347.863C234.325 317.962 179.837 259.019 179.837 259.019H219.347Z" fill="#407BFF"/>
<path opacity="0.6" d="M219.347 259.019C219.347 259.019 260.039 312.54 261.193 344.629C262.146 371.47 216.905 423.475 216.905 423.475L203.752 414.967C203.752 414.967 230.231 378.033 236.901 347.863C234.325 317.962 179.837 259.019 179.837 259.019H219.347Z" fill="black"/>
<path d="M169.006 195.15C164.658 196.183 160.484 211.993 160.484 211.993L177.488 223.347C177.488 223.347 183.152 210.839 181.165 205.363C179.112 199.659 174.469 193.848 169.006 195.15Z" fill="#407BFF"/>
<path opacity="0.2" d="M172.335 205.336L171.154 219.119L177.475 223.36C179.22 219.431 180.512 215.315 181.327 211.094L172.335 205.336Z" fill="black"/>
<path d="M224.38 195.459C224.38 195.459 229.399 197.217 219.347 259.005H176.589C177.314 241.559 177.327 230.822 169.006 195.15C174.993 193.916 181.062 193.118 187.165 192.761C193.629 192.297 200.119 192.297 206.584 192.761C214.932 193.526 224.38 195.459 224.38 195.459Z" fill="#407BFF"/>
<path d="M228.728 205.336C229.695 208.02 230.715 210.906 231.788 213.684C232.862 216.462 233.882 219.321 234.969 222.139L238.257 230.567L239.089 232.674L239.518 233.721L239.72 234.244C239.72 234.338 239.72 234.338 239.72 234.325C239.475 233.979 239.153 233.694 238.78 233.493C238.249 233.18 237.651 233.001 237.036 232.969C236.524 232.953 236.016 233.05 235.546 233.251C234.929 233.533 234.929 233.654 234.942 233.64C235.054 233.551 235.153 233.447 235.237 233.332C235.98 232.356 236.623 231.309 237.156 230.205C237.787 228.97 238.391 227.655 238.995 226.326C240.176 223.642 241.263 220.864 242.35 218.059C243.437 215.254 244.471 212.422 245.477 209.564L248.537 201.001L253.704 202.343C252.684 208.463 251.369 214.422 249.785 220.488C249.02 223.508 248.121 226.501 247.101 229.52C246.591 231.037 246.027 232.54 245.383 234.083C244.712 235.758 243.885 237.367 242.914 238.888C242.557 239.4 242.162 239.884 241.733 240.337C241.048 241.077 240.216 241.667 239.29 242.069C238.469 242.421 237.58 242.586 236.687 242.552C235.686 242.514 234.712 242.223 233.855 241.706C232.844 241.075 232.005 240.204 231.412 239.17C231.211 238.821 231.037 238.472 230.916 238.217L230.661 237.707L230.151 236.66L229.131 234.58C227.789 231.788 226.447 228.97 225.279 226.138C224.112 223.306 222.877 220.434 221.723 217.549C220.568 214.664 219.535 211.778 218.555 208.665L228.728 205.336Z" fill="#E58A7B"/>
<path d="M224.38 195.459C229.52 196.68 235.304 211.872 235.304 211.872L220.018 224.877C220.018 224.877 210.127 208.316 212.127 202.853C214.207 197.163 217.67 193.861 224.38 195.459Z" fill="#407BFF"/>
<path d="M250.966 196.197L256.335 191.714L260.066 197.525L257.314 202.37C257.314 202.37 252.939 206.397 249.074 204.343C248.461 202.964 248.313 201.423 248.655 199.953C248.996 198.483 249.808 197.164 250.966 196.197Z" fill="#E58A7B"/>
<path d="M266.024 191.728L265.622 193.191L257.126 194.613L256.294 191.714L266.024 191.728Z" fill="#E58A7B"/>
<path d="M217.951 424.16L202.625 414.256L205.376 409.478L222.595 420.067L217.951 424.16Z" fill="#407BFF"/>
<path d="M191.915 432.052C190.571 431.887 189.279 431.429 188.131 430.709C188.083 430.693 188.042 430.662 188.013 430.621C187.984 430.58 187.969 430.531 187.969 430.481C187.969 430.431 187.984 430.382 188.013 430.341C188.042 430.3 188.083 430.27 188.131 430.253C188.547 430.119 192.157 429.005 193.204 429.864C193.321 429.962 193.411 430.089 193.463 430.233C193.515 430.377 193.527 430.532 193.499 430.683C193.48 430.924 193.4 431.157 193.266 431.359C193.133 431.561 192.949 431.725 192.734 431.837C192.483 431.974 192.202 432.048 191.915 432.052ZM188.896 430.575C190.573 431.434 191.915 431.743 192.56 431.421C192.7 431.343 192.818 431.231 192.902 431.094C192.987 430.958 193.035 430.803 193.043 430.642C193.043 430.428 193.043 430.334 192.922 430.28C192.358 429.824 190.345 430.173 188.869 430.575H188.896Z" fill="#263238"/>
<path d="M188.225 430.803C188.154 430.802 188.086 430.773 188.037 430.723C188.017 430.685 188.006 430.644 188.006 430.602C188.006 430.56 188.017 430.518 188.037 430.481C188.037 430.36 188.909 427.448 190.278 426.79C190.453 426.711 190.643 426.669 190.835 426.669C191.027 426.669 191.217 426.711 191.392 426.79C191.58 426.85 191.744 426.971 191.855 427.134C191.967 427.297 192.022 427.492 192.009 427.689C191.915 428.897 189.459 430.562 188.332 430.843L188.225 430.803ZM190.828 427.139C190.698 427.143 190.57 427.175 190.453 427.233C189.62 427.636 188.936 429.206 188.6 430.159C189.781 429.662 191.405 428.347 191.459 427.609C191.459 427.488 191.459 427.341 191.15 427.206C191.05 427.152 190.941 427.116 190.828 427.099V427.139Z" fill="#263238"/>
<path d="M211.067 437.849C209.55 437.849 207.443 435.903 206.289 434.709C206.259 434.668 206.244 434.618 206.244 434.568C206.244 434.517 206.259 434.468 206.289 434.427C206.315 434.384 206.353 434.348 206.398 434.325C206.443 434.301 206.493 434.29 206.544 434.293C207.081 434.293 211.738 434.99 212.395 436.306C212.465 436.424 212.502 436.558 212.502 436.695C212.502 436.832 212.465 436.966 212.395 437.084C212.297 437.289 212.148 437.465 211.962 437.597C211.777 437.728 211.561 437.81 211.335 437.836L211.067 437.849ZM207.175 434.897C208.866 436.534 210.355 437.446 211.201 437.339C211.349 437.32 211.49 437.264 211.612 437.178C211.733 437.091 211.832 436.976 211.899 436.843C211.929 436.797 211.945 436.743 211.945 436.688C211.945 436.633 211.929 436.58 211.899 436.534C211.55 435.809 209.067 435.192 207.175 434.897Z" fill="#263238"/>
<path d="M207.322 434.83C207.021 434.838 206.72 434.816 206.423 434.762C206.382 434.756 206.343 434.739 206.31 434.713C206.277 434.688 206.251 434.654 206.235 434.615C206.215 434.575 206.205 434.532 206.205 434.487C206.205 434.443 206.215 434.399 206.235 434.36C206.316 434.266 208.128 432.078 209.845 431.931C210.332 431.893 210.813 432.047 211.187 432.36C211.711 432.816 211.684 433.219 211.55 433.474C211.214 434.387 208.893 434.83 207.322 434.83ZM206.973 434.333C208.476 434.413 210.879 433.917 211.187 433.259C211.187 433.259 211.295 433.045 210.946 432.749C210.807 432.629 210.645 432.538 210.469 432.482C210.294 432.427 210.109 432.408 209.926 432.427C208.769 432.75 207.738 433.42 206.973 434.346V434.333Z" fill="#263238"/>
<path d="M188.587 429.354L177.206 426.133C177.01 426.073 176.799 426.088 176.613 426.175C176.427 426.262 176.28 426.414 176.2 426.603L172.361 435.232C172.271 435.453 172.229 435.691 172.237 435.929C172.246 436.168 172.304 436.402 172.409 436.616C172.515 436.83 172.664 437.02 172.848 437.172C173.031 437.325 173.245 437.436 173.475 437.5C177.502 438.547 179.434 438.842 184.44 440.278C187.527 441.137 191.929 442.734 196.183 443.942C200.437 445.15 201.86 441.003 200.209 440.117C192.747 436.171 192.157 433.407 190.117 430.454C189.752 429.92 189.21 429.53 188.587 429.354Z" fill="#407BFF"/>
<path d="M206.598 433.138L196.881 426.428C196.716 426.308 196.513 426.253 196.31 426.273C196.108 426.292 195.919 426.386 195.781 426.536L189.339 433.461C189.182 433.64 189.065 433.85 188.995 434.078C188.926 434.305 188.906 434.545 188.936 434.781C188.967 435.018 189.047 435.245 189.172 435.447C189.297 435.65 189.463 435.824 189.661 435.957C193.083 438.252 194.855 439.178 199.136 442.144C201.82 443.969 207.014 448.022 210.637 450.545C214.261 453.068 216.958 449.606 215.67 448.237C209.899 442.077 208.638 438.212 207.685 434.709C207.519 434.073 207.134 433.517 206.598 433.138Z" fill="#407BFF"/>
<path d="M198.72 420.657L181.206 411.947L183.017 407.196L201.726 416.376L198.72 420.657Z" fill="#407BFF"/>
<path d="M175.945 256.496L174.469 260.361C174.321 260.656 174.67 260.965 175.166 260.965H219.562C219.951 260.965 220.273 260.777 220.3 260.536L220.676 256.697C220.676 256.442 220.367 256.214 219.951 256.214H176.643C176.512 256.202 176.381 256.221 176.259 256.27C176.138 256.319 176.03 256.396 175.945 256.496Z" fill="#407BFF"/>
<path opacity="0.4" d="M175.945 256.496L174.469 260.361C174.321 260.656 174.67 260.965 175.166 260.965H219.562C219.951 260.965 220.273 260.777 220.3 260.536L220.676 256.697C220.676 256.442 220.367 256.214 219.951 256.214H176.643C176.512 256.202 176.381 256.221 176.259 256.27C176.138 256.319 176.03 256.396 175.945 256.496Z" fill="white"/>
<path d="M182.937 261.34H181.769C181.541 261.34 181.367 261.22 181.38 261.072L181.93 256.093C181.93 255.959 182.145 255.838 182.373 255.838H183.541C183.769 255.838 183.944 255.959 183.93 256.093L183.38 261.072C183.366 261.22 183.165 261.34 182.937 261.34Z" fill="#407BFF"/>
<path d="M210.315 261.34H209.161C208.933 261.34 208.758 261.22 208.772 261.072L209.309 256.093C209.309 255.959 209.537 255.838 209.765 255.838H210.919C211.147 255.838 211.335 255.959 211.308 256.093L210.771 261.072C210.704 261.22 210.557 261.34 210.315 261.34Z" fill="#407BFF"/>
<g style="mix-blend-mode:multiply">
<path d="M181.917 488.62C201.774 488.62 217.871 487.454 217.871 486.016C217.871 484.578 201.774 483.412 181.917 483.412C162.06 483.412 145.963 484.578 145.963 486.016C145.963 487.454 162.06 488.62 181.917 488.62Z" fill="#F5F5F5"/>
</g>
<path d="M203.82 482.339C197.458 480.487 190.399 478.111 186.131 475.628C186.01 475.548 185.876 475.507 185.755 475.44V446.64H198.626C199.603 446.582 200.521 446.153 201.192 445.441C201.863 444.728 202.237 443.787 202.237 442.808C202.237 441.829 201.863 440.888 201.192 440.175C200.521 439.463 199.603 439.034 198.626 438.976H185.822V307.696H178.092V438.976H165.302C164.78 438.946 164.257 439.022 163.765 439.2C163.273 439.379 162.823 439.656 162.443 440.015C162.062 440.374 161.759 440.807 161.551 441.287C161.344 441.767 161.237 442.285 161.237 442.808C161.237 443.331 161.344 443.849 161.551 444.329C161.759 444.809 162.062 445.242 162.443 445.601C162.823 445.96 163.273 446.237 163.765 446.416C164.257 446.594 164.78 446.671 165.302 446.64H178.092V475.4C177.971 475.4 177.851 475.507 177.73 475.588C173.395 478.111 166.389 480.487 160.028 482.298C159.598 482.428 159.229 482.708 158.988 483.086C158.746 483.465 158.648 483.917 158.712 484.362C158.775 484.806 158.995 485.213 159.333 485.509C159.67 485.805 160.102 485.971 160.551 485.976H203.296C203.725 485.946 204.131 485.771 204.446 485.478C204.761 485.186 204.967 484.794 205.028 484.369C205.089 483.943 205.003 483.509 204.783 483.14C204.563 482.77 204.223 482.488 203.82 482.339Z" fill="#E0E0E0"/>
<path d="M205.792 294.329H158.069C154.229 294.329 151.117 297.441 151.117 301.281V315.466C151.117 319.306 154.229 322.418 158.069 322.418H205.792C209.632 322.418 212.744 319.306 212.744 315.466V301.281C212.744 297.441 209.632 294.329 205.792 294.329Z" fill="#407BFF"/>
<path d="M157.626 322.432V324.874C157.626 326.887 159.813 328.525 162.497 328.525H201.417C204.101 328.525 206.289 326.887 206.289 324.874V322.432H157.626Z" fill="#407BFF"/>
<path opacity="0.3" d="M157.626 322.432V324.874C157.626 326.887 159.813 328.525 162.497 328.525H201.417C204.101 328.525 206.289 326.887 206.289 324.874V322.432H157.626Z" fill="white"/>
</svg>
