<svg width="44" height="44" viewBox="0 0 44 44" fill="none" xmlns="http://www.w3.org/2000/svg">
<rect x="0.5" y="0.5" width="43" height="43" rx="11.5" stroke="#B3B3B3"/>
<path d="M28.9831 21.7253C28.9595 21.6232 28.9108 21.5285 28.8414 21.4498C28.772 21.371 28.6841 21.3107 28.5855 21.274L24.0043 20.5642L25.1655 13.7619C25.1922 13.6275 25.1749 13.4881 25.1162 13.3642C25.0576 13.2403 24.9605 13.1383 24.8394 13.0732C24.717 13.0085 24.5766 12.9858 24.44 13.0087C24.3033 13.0316 24.1781 13.0988 24.0838 13.1999L15.1759 22.6989C15.1029 22.7743 15.0501 22.8667 15.0223 22.9676C14.9945 23.0686 14.9927 23.1749 15.0169 23.2768C15.0418 23.3783 15.0909 23.4723 15.1601 23.5508C15.2294 23.6294 15.3166 23.6902 15.4145 23.728L19.9957 24.4378L18.8345 31.2401C18.8078 31.3745 18.8251 31.5139 18.8837 31.6378C18.9424 31.7617 19.0395 31.8637 19.1606 31.9288C19.2519 31.9746 19.3526 31.999 19.4549 32C19.5413 32.0004 19.6269 31.983 19.7063 31.9489C19.7856 31.9149 19.8571 31.8649 19.9162 31.8021L28.8241 22.3031C28.8971 22.2277 28.9499 22.1353 28.9777 22.0344C29.0055 21.9334 29.0073 21.8271 28.9831 21.7253Z" fill="#4169E1"/>
</svg>
