<svg width="44" height="44" viewBox="0 0 44 44" fill="none" xmlns="http://www.w3.org/2000/svg">
<rect x="0.5" y="0.5" width="43" height="43" rx="11.5" stroke="#B3B3B3"/>
<path fill-rule="evenodd" clip-rule="evenodd" d="M17 18C17 15.2377 19.2377 13 22 13C24.7623 13 27 15.2377 27 18V19H29C30.5 19 31 19.72 31 20.6V30.1C31 31.2046 30.1046 32.1 29 32.1H15C13.8954 32.1 13 31.2046 13 30.1V20.6C13 19.72 13.5 19 14.85 19H17V18ZM25 18V19H19V18C19 16.3423 20.3423 15 22 15C23.6577 15 25 16.3423 25 18ZM22 22C20.8954 22 19.944 22.8968 20 24C20.037 24.7298 20.4088 25.3007 21 25.5816V27C21 27.4142 21.1772 28.5 22 28.5C22.8228 28.5 23 27.4142 23 27V25.5816C23.5912 25.3007 23.963 24.7298 24 24C24.056 22.8968 23.1046 22 22 22Z" fill="#4169E1"/>
</svg>
