<svg width="44" height="44" viewBox="0 0 44 44" fill="none" xmlns="http://www.w3.org/2000/svg">
<rect x="0.5" y="0.5" width="43" height="43" rx="11.5" stroke="#B3B3B3"/>
<path d="M26.2222 13.5C25.4029 13.5 24.5948 13.692 23.8619 14.0609C23.1291 14.4297 22.4916 14.9652 22 15.625C21.3354 14.733 20.4088 14.0741 19.3514 13.7417C18.2941 13.4092 17.1597 13.42 16.1088 13.7726C15.0579 14.1252 14.1439 14.8017 13.4962 15.7062C12.8485 16.6107 12.5 17.6975 12.5 18.8125C12.5 25.1786 21.2875 30.1989 21.6569 30.4114C21.7616 30.4706 21.8799 30.5011 22 30.4999C22.1202 30.502 22.2387 30.4714 22.3431 30.4114C23.9613 29.4591 25.4791 28.3436 26.8731 27.0822C29.9431 24.302 31.5 21.5218 31.5 18.8125C31.5 17.4035 30.944 16.0523 29.9542 15.056C28.9644 14.0597 27.622 13.5 26.2222 13.5Z" fill="#4169E1"/>
</svg>
